g safe_door
v 0.0167711 -1.2 0.81 0.494118 0.494118 0.52549
v 0.0167711 -1.2 -0.8 0.494118 0.494118 0.52549
v 0.0167711 0.1 -0.8 0.494118 0.494118 0.52549
v 0.0167711 0.1 0.81 0.494118 0.494118 0.52549
v -0.0632289 0.1 0.81 0.494118 0.494118 0.52549
v -0.0632289 0.1 -0.8 0.494118 0.494118 0.52549
v -0.0632289 -1.2 0.81 0.494118 0.494118 0.52549
v -0.0632289 -1.2 -0.8 0.494118 0.494118 0.52549
vn 1 0 0
vn -0 1 -0
vn -1 -0 -0
vn -0 -0 1
vn -0 -1 -0
vn 0 -0 -1
vt -6.9 4.11
vt -6.9 2.5
vt -8.2 2.5
vt -8.2 4.11
vt -0.805 0
vt -0.805 0.08
vt 0.805 0.08
vt 0.805 0
vt -6.9 4.11
vt -8.2 4.11
vt -8.2 2.5
vt -6.9 2.5
vt -0 -0.65
vt -0.08 -0.65
vt -0.08 0.65
vt 0 0.65
vt -0.805 0
vt -0.805 0.08
vt 0.805 0.08
vt 0.805 0
vt 0 0.65
vt 0.08 0.65
vt 0.08 -0.65
vt 0 -0.65
f 1/1/1 2/2/1 3/3/1
f 3/3/1 4/4/1 1/1/1
f 5/5/2 4/6/2 3/7/2
f 3/7/2 6/8/2 5/5/2
f 7/9/3 5/10/3 6/11/3
f 6/11/3 8/12/3 7/9/3
f 7/13/4 1/14/4 4/15/4
f 4/15/4 5/16/4 7/13/4
f 8/17/5 2/18/5 1/19/5
f 1/19/5 7/20/5 8/17/5
f 6/21/6 3/22/6 2/23/6
f 2/23/6 8/24/6 6/21/6
