g Body_63
v 0.2 3.5 -3.2 0.494118 0.494118 0.52549
v 0.3 3.4 -3.3 0.494118 0.494118 0.52549
v 0.2 3.5 -3.4 0.494118 0.494118 0.52549
v 0.3 -3.2 -3.3 0.494118 0.494118 0.52549
v 0.2 -3.3 -3.4 0.494118 0.494118 0.52549
v 0.2 -3.3 -3.2 0.494118 0.494118 0.52549
vn 0.707107 0.707107 -0
vn 0.707107 -0 -0.707107
vn 0.707107 0 0.707107
vn -1 -0 -0
vn 0.707107 -0.707107 5.88785e-16
vt 3.5 0.141421
vt 3.4 0
vt 3.3 0.141421
vt 7 0.141421
vt 6.9 0
vt 0.3 0
vt 0.2 0.141421
vt -7 0.141421
vt -0.2 0.141421
vt -0.3 0
vt -6.9 0
vt -0.2 3.3
vt -0.2 3.5
vt -7 3.5
vt -7 3.3
vt -3.5 0.141421
vt -3.3 0.141421
vt -3.4 -1.96262e-16
f 1/1/1 2/2/1 3/3/1
f 3/4/2 2/5/2 4/6/2
f 4/6/2 5/7/2 3/4/2
f 1/8/3 6/9/3 4/10/3
f 4/10/3 2/11/3 1/8/3
f 5/12/4 6/13/4 1/14/4
f 1/14/4 3/15/4 5/12/4
f 6/16/5 5/17/5 4/18/5
