g floor
v 2.20471 12.835 1.41415 0.92549 0.92549 0.92549
v 2.25322 4.89065 1.41415 0.92549 0.92549 0.92549
v 3.12922 4.89065 1.41415 0.92549 0.92549 0.92549
v 2.20471 1.585 1.41415 0.92549 0.92549 0.92549
v 2.25322 3.88065 1.41415 0.92549 0.92549 0.92549
v 8.40633 1.585 1.41415 0.92549 0.92549 0.92549
v 3.12922 3.88065 1.41415 0.92549 0.92549 0.92549
v 8.40633 12.835 1.41415 0.92549 0.92549 0.92549
vn 2.89452e-15 -0 1
vt -3.22955 13.8
vt -3.18104 5.85565
vt -2.30504 5.85565
vt -3.22955 2.55
vt -3.18104 4.84565
vt 2.97207 2.55
vt -2.30504 4.84565
vt 2.97207 13.8
f 1/1/1 2/2/1 3/3/1
f 4/4/1 5/5/1 2/2/1
f 2/2/1 1/1/1 4/4/1
f 4/4/1 6/6/1 7/7/1
f 7/7/1 5/5/1 4/4/1
f 6/6/1 8/8/1 3/3/1
f 3/3/1 7/7/1 6/6/1
f 3/3/1 8/8/1 1/1/1
v 3.12922 4.89065 1.41415 0.494118 0.494118 0.52549
v 3.12922 4.89065 1.03915 0.494118 0.494118 0.52549
v 3.12922 3.88065 1.03915 0.494118 0.494118 0.52549
v 3.12922 3.88065 1.41415 0.494118 0.494118 0.52549
v 2.33038 3.88065 1.03915 0.494118 0.494118 0.52549
v 2.33993 3.88065 1.04262 0.494118 0.494118 0.52549
v 2.25322 3.88065 1.41415 0.494118 0.494118 0.52549
v 2.25322 3.88065 1.28086 0.494118 0.494118 0.52549
v 2.25322 4.89065 1.28086 0.494118 0.494118 0.52549
v 2.25322 4.89065 1.41415 0.494118 0.494118 0.52549
v 2.33993 4.89065 1.04262 0.494118 0.494118 0.52549
v 2.33038 4.89065 1.03915 0.494118 0.494118 0.52549
v 2.33038 1.585 1.03915 0.494118 0.494118 0.52549
v 2.33993 1.585 1.04262 0.494118 0.494118 0.52549
v 2.20471 1.585 1.41415 0.494118 0.494118 0.52549
v 2.20471 12.835 1.41415 0.494118 0.494118 0.52549
v 2.33993 12.835 1.04262 0.494118 0.494118 0.52549
v 2.33038 12.835 1.03915 0.494118 0.494118 0.52549
v 8.28066 1.585 1.03915 0.494118 0.494118 0.52549
v 8.28066 12.835 1.03915 0.494118 0.494118 0.52549
v 8.27111 12.835 1.04262 0.494118 0.494118 0.52549
v 8.40633 12.835 1.41415 0.494118 0.494118 0.52549
v 8.27111 1.585 1.04262 0.494118 0.494118 0.52549
v 8.40633 1.585 1.41415 0.494118 0.494118 0.52549
vn -1 0 0
vn 0 1 -0
vn 1 0 0
vn 0 -1 0
vn -0.34202 -0 0.939693
vn -0.939693 0 -0.34202
vn 0 -1.22465e-16 -1
vn 0 1 0
vn 0 -1 1.22465e-16
vn 0.34202 -0 0.939693
vn 0.939693 -0 -0.34202
vt 0.66 0.505
vt 0.285 0.505
vt 0.285 -0.505
vt 0.66 -0.505
vt 0.285 0.438
vt 0.285 -0.360842
vt 0.288477 -0.351289
vt 0.66 0.438
vt 0.66 -0.438
vt 0.526714 -0.438
vt -0.526714 0.505
vt -0.66 0.505
vt -0.66 -0.505
vt -0.526714 -0.505
vt -0.66 0.438
vt -0.526714 -0.438
vt -0.288477 -0.351289
vt -0.66 -0.438
vt -0.285 0.438
vt -0.285 -0.360842
vt 0.00508284 2.55
vt -0.00508284 2.55
vt -0.00508284 4.84565
vt 0.00508284 4.84565
vt 0.757504 2.55
vt 0.362138 2.55
vt 0.503978 4.84565
vt 0.362138 13.8
vt 0.503978 5.85565
vt 0.757504 13.8
vt 0.757504 5.85565
vt 0.757504 4.84565
vt 0.00508284 13.8
vt 0.00508284 5.85565
vt -0.00508284 5.85565
vt -0.00508284 13.8
vt 3.91393 18.75
vt -1.23751 16.4544
vt -1.23751 15.4444
vt -2.03635 18.75
vt -2.03635 16.4544
vt -2.03635 7.5
vt 3.91393 7.5
vt -2.03635 15.4444
vt 3.49434 0.112525
vt -2.44639 0.109049
vt -2.43684 0.112525
vt 3.62956 0.484049
vt -2.57206 0.484049
vt 3.50389 0.109049
vt 1.70652 -2.7768
vt 1.71 3.16393
vt 1.70652 3.15437
vt 1.335 -2.91202
vt 1.71 -2.78635
vt 1.335 3.2896
vt 0.00508284 13.8
vt 0.00508284 2.55
vt -0.00508284 2.55
vt -0.00508284 13.8
vt -0.373102 13.8
vt -0.373102 2.55
vt -0.768469 2.55
vt -0.768469 13.8
f 9/9/2 10/10/2 11/11/2
f 11/11/2 12/12/2 9/9/2
f 11/13/3 13/14/3 14/15/3
f 14/15/3 12/16/3 11/13/3
f 14/15/3 15/17/3 12/16/3
f 14/15/3 16/18/3 15/17/3
f 17/19/4 18/20/4 15/21/4
f 15/21/4 16/22/4 17/19/4
f 9/23/5 17/24/5 19/25/5
f 9/23/5 18/26/5 17/24/5
f 19/25/5 10/27/5 9/23/5
f 19/25/5 20/28/5 10/27/5
f 21/29/6 22/30/6 14/31/6
f 14/31/6 13/32/6 21/29/6
f 22/33/7 23/34/7 16/35/7
f 23/34/7 24/36/7 17/37/7
f 17/37/7 16/35/7 23/34/7
f 25/38/7 19/39/7 17/37/7
f 17/37/7 24/36/7 25/38/7
f 16/35/7 14/40/7 22/33/7
f 26/41/6 20/42/6 19/43/6
f 19/43/6 25/44/6 26/41/6
f 27/45/8 11/46/8 10/47/8
f 21/48/8 13/49/8 11/46/8
f 26/50/8 28/51/8 10/47/8
f 11/46/8 27/45/8 21/48/8
f 10/47/8 28/51/8 27/45/8
f 10/47/8 20/52/8 26/50/8
f 29/53/9 26/54/9 25/55/9
f 25/55/9 30/56/9 29/53/9
f 25/55/9 24/57/9 30/56/9
f 29/53/9 28/58/9 26/54/9
f 22/59/10 27/60/10 31/61/10
f 31/61/10 23/62/10 22/59/10
f 22/59/10 21/63/10 27/60/10
f 31/61/10 32/64/10 23/62/10
f 29/65/11 31/66/11 27/67/11
f 27/67/11 28/68/11 29/65/11
f 30/69/12 32/70/12 31/71/12
f 31/71/12 29/72/12 30/69/12
