g lock_body
v 2.3587 7.311 2.3192 0.494118 0.494118 0.52549
v 2.3842 7.311 2.3034 0.494118 0.494118 0.52549
v 2.3842 7.391 2.3034 0.494118 0.494118 0.52549
v 2.3587 7.391 2.3192 0.494118 0.494118 0.52549
v 2.3536 7.397 2.32236 0.494118 0.494118 0.52549
v 2.3893 7.391 2.30024 0.494118 0.494118 0.52549
v 2.3536 7.305 2.32236 0.494118 0.494118 0.52549
v 2.46582 7.305 2.25286 0.494118 0.494118 0.52549
v 2.46582 7.397 2.25286 0.494118 0.494118 0.52549
v 2.46072 7.391 2.25602 0.494118 0.494118 0.52549
v 2.46072 7.311 2.25602 0.494118 0.494118 0.52549
v 2.3893 7.311 2.30024 0.494118 0.494118 0.52549
v 2.46711 7.301 2.24735 0.494118 0.494118 0.52549
v 2.46711 7.401 2.24735 0.494118 0.494118 0.52549
v 2.34809 7.401 2.32106 0.494118 0.494118 0.52549
v 2.34809 7.301 2.32106 0.494118 0.494118 0.52549
v 2.46237 7.301 2.2397 0.494118 0.494118 0.52549
v 2.46237 7.401 2.2397 0.494118 0.494118 0.52549
v 2.34335 7.401 2.31341 0.494118 0.494118 0.52549
v 2.34335 7.301 2.31341 0.494118 0.494118 0.52549
vn 0.526503 -0 0.850173
vn 0.973457 0 0.22887
vn 0.372294 0.707107 0.601163
vn -0.22887 -0 0.973457
vn 0.372294 -0.707107 0.601163
vn 0.850173 0 -0.526503
vn 0 1 0
vn -0.850173 0 0.526503
vn -0 -1 0
vn -0.526503 0 -0.850173
vt 7.3 -0.71
vt 7.3 -0.74
vt 7.38 -0.74
vt 7.38 -0.71
vt 7.386 -0.704
vt 7.38 -0.71
vt 7.38 -0.74
vt 7.38 -0.746
vt 7.294 -0.704
vt 7.3 -0.71
vt 7.294 -0.836
vt 7.386 -0.836
vt 7.38 -0.83
vt 7.3 -0.74
vt 7.3 -0.83
vt 7.3 -0.746
vt 7.3 -0.746
vt 7.3 -0.83
vt 7.38 -0.83
vt 7.38 -0.746
vt 0.05 -4.32302e-16
vt -0.05 -4.32302e-16
vt -0.046 0.00565685
vt 0.046 0.00565685
vt 0.07 -2.08167e-16
vt -0.07 -1.249e-16
vt -0.066 0.00565685
vt 0.066 0.00565685
vt 0.05 -4.32302e-16
vt -0.05 -4.32302e-16
vt -0.046 0.00565685
vt 0.046 0.00565685
vt -0.07 -2.08167e-16
vt -0.066 0.00565685
vt 0.066 0.00565685
vt 0.07 -1.249e-16
vt 0.013 -0.05
vt 0.013 0.05
vt 0.004 0.05
vt 0.004 -0.05
vt -0.0402559 0.0574061
vt -0.0479075 0.0526676
vt 0.0258029 -0.0663567
vt 0.0334545 -0.0616181
vt -0.013 0.05
vt -0.013 -0.05
vt -0.004 -0.05
vt -0.004 0.05
vt 0.0402559 0.0574061
vt -0.0334545 -0.0616181
vt -0.0258029 -0.0663567
vt 0.0479075 0.0526676
vt 7.39 -0.84
vt 7.29 -0.84
vt 7.29 -0.7
vt 7.39 -0.7
f 1/1/1 2/2/1 3/3/1
f 3/3/1 4/4/1 1/1/1
f 5/5/1 4/6/1 3/7/1
f 3/7/1 6/8/1 5/5/1
f 5/5/1 7/9/1 1/10/1
f 8/11/1 9/12/1 10/13/1
f 9/12/1 5/5/1 6/8/1
f 1/10/1 4/6/1 5/5/1
f 7/9/1 8/11/1 2/14/1
f 6/8/1 10/13/1 9/12/1
f 2/14/1 1/10/1 7/9/1
f 8/11/1 11/15/1 12/16/1
f 3/7/1 12/16/1 6/8/1
f 12/16/1 2/14/1 8/11/1
f 12/16/1 3/7/1 2/14/1
f 10/13/1 11/15/1 8/11/1
f 12/17/1 11/18/1 10/19/1
f 10/19/1 6/20/1 12/17/1
f 13/21/2 14/22/2 9/23/2
f 9/23/2 8/24/2 13/21/2
f 14/25/3 15/26/3 5/27/3
f 5/27/3 9/28/3 14/25/3
f 15/29/4 16/30/4 7/31/4
f 7/31/4 5/32/4 15/29/4
f 13/33/5 8/34/5 7/35/5
f 7/35/5 16/36/5 13/33/5
f 17/37/6 18/38/6 14/39/6
f 14/39/6 13/40/6 17/37/6
f 14/41/7 18/42/7 19/43/7
f 19/43/7 15/44/7 14/41/7
f 19/45/8 20/46/8 16/47/8
f 16/47/8 15/48/8 19/45/8
f 13/49/9 16/50/9 20/51/9
f 20/51/9 17/52/9 13/49/9
f 18/53/10 17/54/10 20/55/10
f 20/55/10 19/56/10 18/53/10
