g lock_screen
v 2.3587 7.311 2.3192 0.494118 0.494118 0.52549
v 2.3587 7.391 2.3192 0.494118 0.494118 0.52549
v 2.3842 7.391 2.3034 0.494118 0.494118 0.52549
v 2.3842 7.311 2.3034 0.494118 0.494118 0.52549
v 2.38578 7.311 2.30595 0.494118 0.494118 0.52549
v 2.38578 7.391 2.30595 0.494118 0.494118 0.52549
v 2.36028 7.391 2.32175 0.494118 0.494118 0.52549
v 2.36028 7.311 2.32175 0.494118 0.494118 0.52549
vn -0.526503 0 -0.850173
vn 0.850173 0 -0.526503
vn 0 1 0
vn -0.850173 0 0.526503
vn -0 -1 0
vn 0.526503 -0 0.850173
vt 7.3 -0.71
vt 7.38 -0.71
vt 7.38 -0.74
vt 7.3 -0.74
vt -0 -0.04
vt 0.003 -0.04
vt 0.003 0.04
vt 0 0.04
vt 0.00789754 -0.0127526
vt -0.00789754 0.0127526
vt -0.0104481 0.0111731
vt 0.00534702 -0.0143321
vt 0 0.04
vt -0.003 0.04
vt -0.003 -0.04
vt 0 -0.04
vt -0.00534702 -0.0143321
vt 0.0104481 0.0111731
vt 0.00789754 0.0127526
vt -0.00789754 -0.0127526
vt 7.3 -0.71
vt 7.3 -0.74
vt 7.38 -0.74
vt 7.38 -0.71
f 1/1/1 2/2/1 3/3/1
f 3/3/1 4/4/1 1/1/1
f 5/5/2 4/6/2 3/7/2
f 3/7/2 6/8/2 5/5/2
f 7/9/3 6/10/3 3/11/3
f 3/11/3 2/12/3 7/9/3
f 7/13/4 2/14/4 1/15/4
f 1/15/4 8/16/4 7/13/4
f 1/17/5 4/18/5 5/19/5
f 5/19/5 8/20/5 1/17/5
f 8/21/6 5/22/6 6/23/6
f 6/23/6 7/24/6 8/21/6
