g room3_floor
v -3 7.89024 1.10165 0.494118 0.494118 0.52549
v -3 7.89024 0.601648 0.494118 0.494118 0.52549
v -2.6 7.89024 0.601648 0.494118 0.494118 0.52549
v -2.6 7.89024 1.10165 0.494118 0.494118 0.52549
v -3 8.9 1.10165 0.494118 0.494118 0.52549
v -3 8.9 0.601648 0.494118 0.494118 0.52549
v -6 8.9 1.10165 0.494118 0.494118 0.52549
v -6 8.9 0.601648 0.494118 0.494118 0.52549
v -6 15.9 1.10165 0.494118 0.494118 0.52549
v -6 15.9 0.601648 0.494118 0.494118 0.52549
v 0.5 15.9 1.10165 0.494118 0.494118 0.52549
v 0.5 15.9 0.601648 0.494118 0.494118 0.52549
v 0.5 12.4 1.10165 0.494118 0.494118 0.52549
v 0.5 12.4 0.601648 0.494118 0.494118 0.52549
v 11 12.4 1.10165 0.494118 0.494118 0.52549
v 11 12.4 0.601648 0.494118 0.494118 0.52549
v 14 9.4 1.10165 0.494118 0.494118 0.52549
v 14 9.4 0.601648 0.494118 0.494118 0.52549
v 14 -1.6 1.10165 0.494118 0.494118 0.52549
v 14 -1.6 0.601648 0.494118 0.494118 0.52549
v 11 -4.6 1.10165 0.494118 0.494118 0.52549
v 11 -4.6 0.601648 0.494118 0.494118 0.52549
v 0 -4.6 1.10165 0.494118 0.494118 0.52549
v 0 -4.6 0.601648 0.494118 0.494118 0.52549
v -3 -1.6 1.10165 0.494118 0.494118 0.52549
v -3 -1.6 0.601648 0.494118 0.494118 0.52549
v -2.6 -0.6 0.601648 0.494118 0.494118 0.52549
v -3 -0.6 0.601648 0.494118 0.494118 0.52549
v -2.6 -0.6 1.10165 0.494118 0.494118 0.52549
v -3 -0.6 1.10165 0.494118 0.494118 0.52549
vn 0 -1 0
vn -1 0 0
vn 0 1 0
vn 1 0 -0
vn 0.707107 0.707107 -0
vn 0.707107 -0.707107 0
vn 0 -1 0
vn -0.707107 -0.707107 0
vn -0 -0 -1
vn 0 0 1
vn -1 0 0
vn -0 1 -0
vt -0 -0.2
vt 0.5 -0.2
vt 0.5 0.2
vt 0 0.2
vt 0 0.504881
vt -0.5 0.504881
vt -0.5 -0.504881
vt 0 -0.504881
vt -0 -1.5
vt 0.5 -1.5
vt 0.5 1.5
vt 0 1.5
vt 0 3.5
vt -0.5 3.5
vt -0.5 -3.5
vt 0 -3.5
vt 0 3.25
vt -0.5 3.25
vt -0.5 -3.25
vt 0 -3.25
vt -0 -1.75
vt 0.5 -1.75
vt 0.5 1.75
vt 0 1.75
vt 0 5.25
vt -0.5 5.25
vt -0.5 -5.25
vt 0 -5.25
vt -2.12132 0
vt -2.12132 -0.5
vt 2.12132 -0.5
vt 2.12132 0
vt -0 -5.5
vt 0.5 -5.5
vt 0.5 5.5
vt 0 5.5
vt -2.12132 0
vt -2.12132 -0.5
vt 2.12132 -0.5
vt 2.12132 0
vt -0 -5.5
vt 0.5 -5.5
vt 0.5 5.5
vt 0 5.5
vt -2.12132 0
vt -2.12132 -0.5
vt 2.12132 -0.5
vt 2.12132 0
vt 2.6 -10.4902
vt -0.5 -15
vt -11 -15
vt 2.6 -2
vt -14 -1
vt -11 2
vt 6 -18.5
vt -0.5 -18.5
vt -14 -12
vt 3 -11.5
vt 3 -10.4902
vt 0 2
vt 3 -1
vt 3 -2
vt 6 -11.5
vt -14 -12
vt 2.6 -2
vt 0 2
vt 2.6 -10.4902
vt -11 -15
vt -11 2
vt -0.5 -15
vt 6 -18.5
vt 6 -11.5
vt 3 -11.5
vt 3 -10.4902
vt 3 -2
vt 3 -1
vt -14 -1
vt -0.5 -18.5
vt 0 0.5
vt -0.5 0.5
vt -0.5 -0.5
vt 0 -0.5
vt 0 0.2
vt 0.5 0.2
vt 0.5 -0.2
vt -0 -0.2
vt 0 -0.672038
vt -0.5 -0.672038
vt -0.5 -9.16228
vt 0 -9.16228
f 1/1/1 2/2/1 3/3/1
f 3/3/1 4/4/1 1/1/1
f 5/5/2 6/6/2 2/7/2
f 2/7/2 1/8/2 5/5/2
f 7/9/1 8/10/1 6/11/1
f 6/11/1 5/12/1 7/9/1
f 9/13/2 10/14/2 8/15/2
f 8/15/2 7/16/2 9/13/2
f 11/17/3 12/18/3 10/19/3
f 10/19/3 9/20/3 11/17/3
f 13/21/4 14/22/4 12/23/4
f 12/23/4 11/24/4 13/21/4
f 15/25/3 16/26/3 14/27/3
f 14/27/3 13/28/3 15/25/3
f 17/29/5 18/30/5 16/31/5
f 16/31/5 15/32/5 17/29/5
f 19/33/4 20/34/4 18/35/4
f 18/35/4 17/36/4 19/33/4
f 21/37/6 22/38/6 20/39/6
f 20/39/6 19/40/6 21/37/6
f 23/41/7 24/42/7 22/43/7
f 22/43/7 21/44/7 23/41/7
f 25/45/8 26/46/8 24/47/8
f 24/47/8 23/48/8 25/45/8
f 3/49/9 14/50/9 16/51/9
f 27/52/9 20/53/9 22/54/9
f 10/55/9 12/56/9 14/50/9
f 18/57/9 27/52/9 3/49/9
f 27/52/9 18/57/9 20/53/9
f 14/50/9 6/58/9 10/55/9
f 3/49/9 2/59/9 6/58/9
f 22/54/9 24/60/9 27/52/9
f 27/52/9 24/60/9 26/61/9
f 6/58/9 14/50/9 3/49/9
f 26/61/9 28/62/9 27/52/9
f 16/51/9 18/57/9 3/49/9
f 6/58/9 8/63/9 10/55/9
f 17/64/10 29/65/10 23/66/10
f 4/67/10 17/64/10 15/68/10
f 23/66/10 21/69/10 17/64/10
f 15/68/10 13/70/10 4/67/10
f 9/71/10 7/72/10 5/73/10
f 4/67/10 29/65/10 17/64/10
f 4/67/10 13/70/10 5/73/10
f 5/73/10 13/70/10 9/71/10
f 5/73/10 1/74/10 4/67/10
f 29/65/10 30/75/10 25/76/10
f 21/69/10 19/77/10 17/64/10
f 13/70/10 11/78/10 9/71/10
f 25/76/10 23/66/10 29/65/10
f 30/79/11 28/80/11 26/81/11
f 26/81/11 25/82/11 30/79/11
f 29/83/12 27/84/12 28/85/12
f 28/85/12 30/86/12 29/83/12
f 4/87/11 3/88/11 27/89/11
f 27/89/11 29/90/11 4/87/11
