g room3_walls
v 0 15.5 6.46365 0.494118 0.494118 0.52549
v 0 15.5 1.10165 0.494118 0.494118 0.52549
v 5.55112e-17 12.4 1.10165 0.494118 0.494118 0.52549
v 5.55112e-17 12.4 6.46365 0.494118 0.494118 0.52549
v -5.6 15.5 6.46365 0.494118 0.494118 0.52549
v -5.6 15.5 1.10165 0.494118 0.494118 0.52549
v -5.6 9.3 6.46365 0.494118 0.494118 0.52549
v -5.6 9.3 1.10165 0.494118 0.494118 0.52549
v -3 9.3 6.46365 0.494118 0.494118 0.52549
v -3 9.3 1.10165 0.494118 0.494118 0.52549
v -3 9.4 6.46365 0.494118 0.494118 0.52549
v -3 9.4 1.10165 0.494118 0.494118 0.52549
v -2.6 9.8 6.46365 0.494118 0.494118 0.52549
v -2.6 9.8 1.10165 0.494118 0.494118 0.52549
v -2.31986 9.51445 6.46365 0.494118 0.494118 0.52549
v -2.31986 9.51445 1.10165 0.494118 0.494118 0.52549
v -2.6 9.23431 6.46365 0.494118 0.494118 0.52549
v -2.6 9.23431 1.10165 0.494118 0.494118 0.52549
v -2.6 7.89024 6.46365 0.494118 0.494118 0.52549
v -2.6 7.89024 1.10165 0.494118 0.494118 0.52549
v -3 7.89024 6.46365 0.494118 0.494118 0.52549
v -3 7.89024 1.10165 0.494118 0.494118 0.52549
v -3 8.9 6.46365 0.494118 0.494118 0.52549
v -3 8.9 1.10165 0.494118 0.494118 0.52549
v -6 8.9 6.46365 0.494118 0.494118 0.52549
v -6 8.9 1.10165 0.494118 0.494118 0.52549
v -6 15.9 6.46365 0.494118 0.494118 0.52549
v -6 15.9 1.10165 0.494118 0.494118 0.52549
v 0.5 15.9 6.46365 0.494118 0.494118 0.52549
v 0.5 15.9 1.10165 0.494118 0.494118 0.52549
v 0.5 12.4 6.46365 0.494118 0.494118 0.52549
v 0.5 12.4 1.10165 0.494118 0.494118 0.52549
v 11 12.4 6.46365 0.494118 0.494118 0.52549
v 11 12.4 1.10165 0.494118 0.494118 0.52549
v 14 9.4 6.46365 0.494118 0.494118 0.52549
v 14 9.4 1.10165 0.494118 0.494118 0.52549
v 14 -1.6 6.46365 0.494118 0.494118 0.52549
v 14 -1.6 1.10165 0.494118 0.494118 0.52549
v 11 -4.6 6.46365 0.494118 0.494118 0.52549
v 11 -4.6 1.10165 0.494118 0.494118 0.52549
v -0.5 11.9 1.10165 0.494118 0.494118 0.52549
v -0.5 11.9 6.46365 0.494118 0.494118 0.52549
v -0.231579 11.6027 1.10165 0.494118 0.494118 0.52549
v -0.231579 11.6027 6.46365 0.494118 0.494118 0.52549
v 0.165685 12 1.10165 0.494118 0.494118 0.52549
v 0.165685 12 6.46365 0.494118 0.494118 0.52549
v 8.16142 12 1.10165 0.494118 0.494118 0.52549
v 8.16142 12 6.46365 0.494118 0.494118 0.52549
v 8.16142 10.9118 1.10165 0.494118 0.494118 0.52549
v 8.16142 10.9118 6.46365 0.494118 0.494118 0.52549
v 8.56142 10.9118 1.10165 0.494118 0.494118 0.52549
v 8.56142 10.9118 6.46365 0.494118 0.494118 0.52549
v 8.56142 12 1.10165 0.494118 0.494118 0.52549
v 8.56142 12 6.46365 0.494118 0.494118 0.52549
v 10.8343 12 1.10165 0.494118 0.494118 0.52549
v 10.8343 12 6.46365 0.494118 0.494118 0.52549
v 13.6 9.23431 1.10165 0.494118 0.494118 0.52549
v 13.6 9.23431 6.46365 0.494118 0.494118 0.52549
v 13.6 2.9111 1.10165 0.494118 0.494118 0.52549
v 13.6 2.9111 6.46365 0.494118 0.494118 0.52549
v 8.56142 2.9111 1.10165 0.494118 0.494118 0.52549
v 8.56142 2.9111 6.46365 0.494118 0.494118 0.52549
v 8.56142 8.88445 1.10165 0.494118 0.494118 0.52549
v 8.56142 8.88445 6.46365 0.494118 0.494118 0.52549
v 8.16142 8.88445 1.10165 0.494118 0.494118 0.52549
v 8.16142 8.88445 6.46365 0.494118 0.494118 0.52549
v 8.16142 2.5111 1.10165 0.494118 0.494118 0.52549
v 8.16142 2.5111 6.46365 0.494118 0.494118 0.52549
v 13.6 2.5111 1.10165 0.494118 0.494118 0.52549
v 13.6 2.5111 6.46365 0.494118 0.494118 0.52549
v 13.6 -1.43431 1.10165 0.494118 0.494118 0.52549
v 13.6 -1.43431 6.46365 0.494118 0.494118 0.52549
v 10.8343 -4.2 1.10165 0.494118 0.494118 0.52549
v 10.8343 -4.2 6.46365 0.494118 0.494118 0.52549
v 7.7 -4.6 6.3 0.494118 0.494118 0.52549
v 0 -4.6 6.46365 0.494118 0.494118 0.52549
v 3.1 -4.6 6.3 0.494118 0.494118 0.52549
v 0 -4.6 1.10165 0.494118 0.494118 0.52549
v 3.1 -4.6 1.2 0.494118 0.494118 0.52549
v 7.7 -4.6 1.2 0.494118 0.494118 0.52549
v -3 -1.6 6.46365 0.494118 0.494118 0.52549
v -3 -1.6 1.10165 0.494118 0.494118 0.52549
v -3 -0.6 6.46365 0.494118 0.494118 0.52549
v -3 -0.6 1.10165 0.494118 0.494118 0.52549
v -2.6 -0.6 6.46365 0.494118 0.494118 0.52549
v -2.6 -0.6 1.10165 0.494118 0.494118 0.52549
v 0.165685 -4.2 1.10165 0.494118 0.494118 0.52549
v -2.6 -1.43431 1.10165 0.494118 0.494118 0.52549
v 0.165685 -4.2 6.46365 0.494118 0.494118 0.52549
v -2.6 -1.43431 6.46365 0.494118 0.494118 0.52549
v 7.4 -4.2 6 0.494118 0.494118 0.52549
v 7.4 -4.2 1.5 0.494118 0.494118 0.52549
v 3.4 -4.2 1.5 0.494118 0.494118 0.52549
v 3.4 -4.2 6 0.494118 0.494118 0.52549
v 3.4 -4.6 6 0.494118 0.494118 0.52549
v 3.4 -4.6 1.5 0.494118 0.494118 0.52549
v 7.4 -4.6 1.5 0.494118 0.494118 0.52549
v 7.4 -4.6 6 0.494118 0.494118 0.52549
vn -1 -0 0
vn -0 -1 -0
vn 1 -0 -0
vn -0 1 -0
vn -1 0 0
vn -0.707107 0.707107 0
vn 0.713833 0.700316 -0
vn 0.707107 -0.707107 -0
vn 1 -0 -0
vn 0 -1 0
vn -1 0 0
vn 0 1 0
vn 1 0 -0
vn 0.707107 0.707107 -0
vn 0.707107 -0.707107 0
vn -0.707107 0.707107 0
vn -0.742197 -0.670181 0
vn 0.707107 -0.707107 -0
vn -0 -1 -0
vn -1 0 0
vn 1 -0 -0
vn -0 -1 -0
vn -0.707107 -0.707107 0
vn -1 -0 0
vn 0 1 0
vn 1 -0 -0
vn -1 0 0
vn 0 -1 0
vn -0.707107 0.707107 -0
vn -0.707107 -0.707107 0
vn -1 0 0
vn -0 1 -0
vn -0 -0 -1
vn 0 0 1
vn 1 -0 -0
vn 0.707107 0.707107 -0
vn -0 1 -0
vn 0 -1 0
vn 1 -0 -0
vn -0 -0 1
vn -1 -0 -0
vn -0 0 -1
vt 0 1.55
vt 5.362 1.55
vt 5.362 -1.55
vt -0 -1.55
vt 0 -2.8
vt -5.362 -2.8
vt -5.362 2.8
vt 0 2.8
vt 0 -3.1
vt -5.362 -3.1
vt -5.362 3.1
vt 0 3.1
vt 0 1.3
vt 5.362 1.3
vt 5.362 -1.3
vt -0 -1.3
vt 0 0.05
vt -5.362 0.05
vt -5.362 -0.05
vt 0 -0.05
vt -0.282843 0
vt -0.282843 -5.362
vt 0.282843 -5.362
vt 0.282843 0
vt 0.200009 0
vt 0.200009 -5.362
vt -0.200009 -5.362
vt -0.200009 0
vt 0.198088 0
vt 0.198088 -5.362
vt -0.198088 -5.362
vt -0.198088 0
vt 0 -0.672038
vt -5.362 -0.672038
vt -5.362 0.672038
vt 0 0.672038
vt -0 -0.2
vt 5.362 -0.2
vt 5.362 0.2
vt 0 0.2
vt 0 0.504881
vt -5.362 0.504881
vt -5.362 -0.504881
vt 0 -0.504881
vt -0 -1.5
vt 5.362 -1.5
vt 5.362 1.5
vt 0 1.5
vt 0 3.5
vt -5.362 3.5
vt -5.362 -3.5
vt 0 -3.5
vt 0 3.25
vt -5.362 3.25
vt -5.362 -3.25
vt 0 -3.25
vt -0 -1.75
vt 5.362 -1.75
vt 5.362 1.75
vt 0 1.75
vt 0 5.25
vt -5.362 5.25
vt -5.362 -5.25
vt 0 -5.25
vt -2.12132 0
vt -2.12132 -5.362
vt 2.12132 -5.362
vt 2.12132 0
vt -0 -5.5
vt 5.362 -5.5
vt 5.362 5.5
vt 0 5.5
vt -2.12132 0
vt -2.12132 -5.362
vt 2.12132 -5.362
vt 2.12132 0
vt -0.353553 0
vt -0.353553 -5.362
vt 0.353553 -5.362
vt 0.353553 0
vt -0.20026 0
vt -0.20026 -5.362
vt 0.20026 -5.362
vt 0.20026 0
vt 0.280909 0
vt 0.280909 -5.362
vt -0.280909 -5.362
vt -0.280909 0
vt 0 -3.99787
vt -5.362 -3.99787
vt -5.362 3.99787
vt 0 3.99787
vt 0 0.594091
vt -5.362 0.594091
vt -5.362 -0.494091
vt 0 -0.494091
vt -0 -0.2
vt 5.362 -0.2
vt 5.362 0.2
vt 0 0.2
vt 0 -0.494091
vt -5.362 -0.494091
vt -5.362 0.594091
vt 0 0.594091
vt 0 -1.13645
vt -5.362 -1.13645
vt -5.362 1.13645
vt 0 1.13645
vt 1.95563 0
vt 1.95563 -5.362
vt -1.95563 -5.362
vt -1.95563 0
vt 0 3.16161
vt 5.362 3.16161
vt 5.362 -3.16161
vt -0 -3.16161
vt 0 0.2
vt -5.362 0.2
vt -5.362 -4.83858
vt 0 -4.83858
vt 0 -2.98667
vt -5.362 -2.98667
vt -5.362 2.98667
vt 0 2.98667
vt 0 0.2
vt 5.362 0.2
vt 5.362 -0.2
vt -0 -0.2
vt 0 3.18667
vt -5.362 3.18667
vt -5.362 -3.18667
vt 0 -3.18667
vt -0 -2.71929
vt 5.362 -2.71929
vt 5.362 2.71929
vt 0 2.71929
vt 0 1.97271
vt 5.362 1.97271
vt 5.362 -1.97271
vt -0 -1.97271
vt 1.95563 0
vt 1.95563 -5.362
vt -1.95563 -5.362
vt -1.95563 0
vt 5.362 5.5
vt 0 5.5
vt 0.163648 2.2
vt -0 -5.5
vt 0.163648 -2.4
vt 5.362 -5.5
vt 5.26365 -2.4
vt 5.26365 2.2
vt -2.12132 0
vt -2.12132 -5.362
vt 2.12132 -5.362
vt 2.12132 0
vt 0 0.5
vt -5.362 0.5
vt -5.362 -0.5
vt 0 -0.5
vt 0 0.2
vt 5.362 0.2
vt 5.362 -0.2
vt -0 -0.2
vt 0 2
vt -0.165685 1.6
vt -10.8343 1.6
vt 3 -1
vt 2.6 -1.16569
vt -11 -15
vt -14 -12
vt -13.6 -11.8343
vt -14 -1
vt -13.6 -5.5111
vt -11 2
vt -10.8343 -14.6
vt -8.56142 -14.6
vt 3 -2
vt 2.6 -2
vt -0.5 -15
vt -8.16142 -14.6
vt -8.16142 -13.5118
vt -13.6 -1.16569
vt -13.6 -5.1111
vt 2.6 -11.8343
vt 2.6 -10.4902
vt 3 -11.9
vt 2.6 -12.4
vt 2.31986 -12.1145
vt 3 -11.5
vt 6 -11.5
vt 5.6 -11.9
vt 3 -10.4902
vt -0.165685 -14.6
vt -8.16142 -5.1111
vt -8.56142 -5.5111
vt 3 -12
vt -8.56142 -13.5118
vt 6 -18.5
vt 5.6 -18.1
vt -8.16142 -11.4844
vt -8.56142 -11.4844
vt -5.55112e-17 -15
vt -0 -18.1
vt 0.231579 -14.2027
vt 0.5 -14.5
vt -0.5 -18.5
vt 0 2
vt -0.165685 1.6
vt 2.6 -1.16569
vt -11 2
vt -10.8343 1.6
vt -14 -1
vt -13.6 -1.16569
vt 3 -2
vt 3 -1
vt -13.6 -5.5111
vt -13.6 -5.1111
vt -14 -12
vt -13.6 -11.8343
vt -11 -15
vt -10.8343 -14.6
vt 2.6 -10.4902
vt 3 -11.9
vt 3 -11.5
vt 2.6 -12.4
vt 3 -12
vt 2.6 -11.8343
vt 6 -18.5
vt 5.6 -18.1
vt -0 -18.1
vt 6 -11.5
vt 5.6 -11.9
vt 0.5 -14.5
vt 0.231579 -14.2027
vt -0.165685 -14.6
vt -8.56142 -5.5111
vt -8.16142 -14.6
vt -8.56142 -14.6
vt -0.5 -18.5
vt -5.55112e-17 -15
vt -8.16142 -11.4844
vt -8.16142 -5.1111
vt -8.56142 -13.5118
vt 2.31986 -12.1145
vt -0.5 -15
vt 2.6 -2
vt -8.16142 -13.5118
vt 3 -10.4902
vt -8.56142 -11.4844
vt 0 -0.417157
vt -5.362 -0.417157
vt -5.362 0.417157
vt 0 0.417157
vt 1.95563 0
vt 1.95563 -5.362
vt -1.95563 -5.362
vt -1.95563 0
vt -0 -5.33431
vt 0 5.33431
vt 0.463648 1.9
vt 5.362 5.33431
vt 4.96365 1.9
vt 5.362 -5.33431
vt 4.96365 -2.1
vt 0.463648 -2.1
vt 0.163648 2.2
vt 0.163648 -2.4
vt 0.463648 -2.1
vt 5.26365 -2.4
vt 4.96365 -2.1
vt 5.26365 2.2
vt 4.96365 1.9
vt 0.463648 1.9
vt 0 -0
vt 4.5 0
vt 4.5 -0.4
vt 0 -0.4
vt 4.44089e-16 0
vt 4 0
vt 4 -0.4
vt 4.44089e-16 -0.4
vt 4.5 -0.4
vt 0 -0.4
vt 2.22045e-16 0
vt 4.5 0
vt -0 0
vt 4 -0
vt 4 -0.4
vt -0 -0.4
f 1/1/1 2/2/1 3/3/1
f 3/3/1 4/4/1 1/1/1
f 5/5/2 6/6/2 2/7/2
f 2/7/2 1/8/2 5/5/2
f 7/9/3 8/10/3 6/11/3
f 6/11/3 5/12/3 7/9/3
f 9/13/4 10/14/4 8/15/4
f 8/15/4 7/16/4 9/13/4
f 11/17/5 12/18/5 10/19/5
f 10/19/5 9/20/5 11/17/5
f 13/21/6 14/22/6 12/23/6
f 12/23/6 11/24/6 13/21/6
f 15/25/7 16/26/7 14/27/7
f 14/27/7 13/28/7 15/25/7
f 17/29/8 18/30/8 16/31/8
f 16/31/8 15/32/8 17/29/8
f 19/33/9 20/34/9 18/35/9
f 18/35/9 17/36/9 19/33/9
f 21/37/10 22/38/10 20/39/10
f 20/39/10 19/40/10 21/37/10
f 23/41/11 24/42/11 22/43/11
f 22/43/11 21/44/11 23/41/11
f 25/45/10 26/46/10 24/47/10
f 24/47/10 23/48/10 25/45/10
f 27/49/11 28/50/11 26/51/11
f 26/51/11 25/52/11 27/49/11
f 29/53/12 30/54/12 28/55/12
f 28/55/12 27/56/12 29/53/12
f 31/57/13 32/58/13 30/59/13
f 30/59/13 29/60/13 31/57/13
f 33/61/12 34/62/12 32/63/12
f 32/63/12 31/64/12 33/61/12
f 35/65/14 36/66/14 34/67/14
f 34/67/14 33/68/14 35/65/14
f 37/69/13 38/70/13 36/71/13
f 36/71/13 35/72/13 37/69/13
f 39/73/15 40/74/15 38/75/15
f 38/75/15 37/76/15 39/73/15
f 4/77/16 3/78/16 41/79/16
f 41/79/16 42/80/16 4/77/16
f 42/81/17 41/82/17 43/83/17
f 43/83/17 44/84/17 42/81/17
f 44/85/18 43/86/18 45/87/18
f 45/87/18 46/88/18 44/85/18
f 46/89/19 45/90/19 47/91/19
f 47/91/19 48/92/19 46/89/19
f 48/93/20 47/94/20 49/95/20
f 49/95/20 50/96/20 48/93/20
f 50/97/19 49/98/19 51/99/19
f 51/99/19 52/100/19 50/97/19
f 52/101/21 51/102/21 53/103/21
f 53/103/21 54/104/21 52/101/21
f 54/105/22 53/106/22 55/107/22
f 55/107/22 56/108/22 54/105/22
f 56/109/23 55/110/23 57/111/23
f 57/111/23 58/112/23 56/109/23
f 58/113/24 57/114/24 59/115/24
f 59/115/24 60/116/24 58/113/24
f 60/117/25 59/118/25 61/119/25
f 61/119/25 62/120/25 60/117/25
f 62/121/26 61/122/26 63/123/26
f 63/123/26 64/124/26 62/121/26
f 64/125/25 63/126/25 65/127/25
f 65/127/25 66/128/25 64/125/25
f 66/129/27 65/130/27 67/131/27
f 67/131/27 68/132/27 66/129/27
f 68/133/28 67/134/28 69/135/28
f 69/135/28 70/136/28 68/133/28
f 70/137/27 69/138/27 71/139/27
f 71/139/27 72/140/27 70/137/27
f 72/141/29 71/142/29 73/143/29
f 73/143/29 74/144/29 72/141/29
f 40/145/28 39/146/28 75/147/28
f 76/148/28 77/149/28 75/147/28
f 75/147/28 39/146/28 76/148/28
f 78/150/28 79/151/28 77/149/28
f 77/149/28 76/148/28 78/150/28
f 78/150/28 40/145/28 80/152/28
f 80/152/28 79/151/28 78/150/28
f 75/147/28 80/152/28 40/145/28
f 81/153/30 82/154/30 78/155/30
f 78/155/30 76/156/30 81/153/30
f 83/157/31 84/158/31 82/159/31
f 82/159/31 81/160/31 83/157/31
f 85/161/32 86/162/32 84/163/32
f 84/163/32 83/164/32 85/161/32
f 78/165/33 87/166/33 73/167/33
f 78/165/33 82/168/33 88/169/33
f 34/170/33 36/171/33 57/172/33
f 36/171/33 38/173/33 59/174/33
f 38/173/33 40/175/33 73/167/33
f 88/169/33 87/166/33 78/165/33
f 34/170/33 55/176/33 53/177/33
f 59/174/33 57/172/33 36/171/33
f 73/167/33 40/175/33 78/165/33
f 84/178/33 86/179/33 88/169/33
f 32/180/33 34/170/33 47/181/33
f 49/182/33 47/181/33 53/177/33
f 57/172/33 55/176/33 34/170/33
f 38/173/33 71/183/33 69/184/33
f 88/169/33 82/168/33 84/178/33
f 18/185/33 20/186/33 10/187/33
f 14/188/33 16/189/33 18/185/33
f 24/190/33 26/191/33 8/192/33
f 20/186/33 22/193/33 24/190/33
f 47/181/33 45/194/33 32/180/33
f 53/177/33 47/181/33 34/170/33
f 69/184/33 67/195/33 61/196/33
f 73/167/33 71/183/33 38/173/33
f 18/185/33 12/197/33 14/188/33
f 24/190/33 10/187/33 20/186/33
f 53/177/33 51/198/33 49/182/33
f 69/184/33 59/174/33 38/173/33
f 8/192/33 10/187/33 24/190/33
f 28/199/33 6/200/33 8/192/33
f 61/196/33 59/174/33 69/184/33
f 65/201/33 63/202/33 61/196/33
f 32/180/33 3/203/33 2/204/33
f 43/205/33 41/206/33 3/203/33
f 8/192/33 26/191/33 28/199/33
f 28/199/33 30/207/33 2/204/33
f 61/196/33 67/195/33 65/201/33
f 3/203/33 32/180/33 43/205/33
f 2/204/33 6/200/33 28/199/33
f 2/204/33 30/207/33 32/180/33
f 45/194/33 43/205/33 32/180/33
f 10/187/33 12/197/33 18/185/33
f 76/208/34 89/209/34 90/210/34
f 76/208/34 39/211/34 74/212/34
f 74/212/34 89/209/34 76/208/34
f 37/213/34 72/214/34 74/212/34
f 83/215/34 81/216/34 90/210/34
f 74/212/34 39/211/34 37/213/34
f 90/210/34 81/216/34 76/208/34
f 37/213/34 60/217/34 70/218/34
f 35/219/34 58/220/34 60/217/34
f 33/221/34 56/222/34 58/220/34
f 19/223/34 9/224/34 23/225/34
f 13/226/34 11/227/34 17/228/34
f 17/228/34 11/227/34 9/224/34
f 27/229/34 5/230/34 1/231/34
f 27/229/34 25/232/34 7/233/34
f 42/234/34 44/235/34 46/236/34
f 70/218/34 72/214/34 37/213/34
f 70/218/34 60/217/34 62/237/34
f 58/220/34 35/219/34 33/221/34
f 33/221/34 48/238/34 54/239/34
f 9/224/34 7/233/34 23/225/34
f 9/224/34 19/223/34 17/228/34
f 1/231/34 29/240/34 27/229/34
f 25/232/34 23/225/34 7/233/34
f 46/236/34 4/241/34 42/234/34
f 66/242/34 68/243/34 62/237/34
f 62/237/34 68/243/34 70/218/34
f 54/239/34 56/222/34 33/221/34
f 52/244/34 54/239/34 48/238/34
f 17/228/34 15/245/34 13/226/34
f 7/233/34 5/230/34 27/229/34
f 31/246/34 1/231/34 4/241/34
f 31/246/34 46/236/34 48/238/34
f 90/210/34 85/247/34 83/215/34
f 48/238/34 50/248/34 52/244/34
f 1/231/34 31/246/34 29/240/34
f 48/238/34 33/221/34 31/246/34
f 60/217/34 37/213/34 35/219/34
f 46/236/34 31/246/34 4/241/34
f 23/225/34 21/249/34 19/223/34
f 62/237/34 64/250/34 66/242/34
f 90/251/35 88/252/35 86/253/35
f 86/253/35 85/254/35 90/251/35
f 89/255/36 87/256/36 88/257/36
f 88/257/36 90/258/36 89/255/36
f 89/259/37 74/260/37 91/261/37
f 73/262/37 92/263/37 91/261/37
f 91/261/37 74/260/37 73/262/37
f 87/264/37 93/265/37 92/263/37
f 92/263/37 73/262/37 87/264/37
f 87/264/37 89/259/37 94/266/37
f 94/266/37 93/265/37 87/264/37
f 91/261/37 94/266/37 89/259/37
f 75/267/38 77/268/38 95/269/38
f 79/270/38 96/271/38 95/269/38
f 95/269/38 77/268/38 79/270/38
f 80/272/38 97/273/38 96/271/38
f 75/267/38 98/274/38 97/273/38
f 96/271/38 79/270/38 80/272/38
f 95/269/38 98/274/38 75/267/38
f 97/273/38 80/272/38 75/267/38
f 95/275/39 96/276/39 93/277/39
f 93/277/39 94/278/39 95/275/39
f 96/279/40 97/280/40 92/281/40
f 92/281/40 93/282/40 96/279/40
f 91/283/41 92/284/41 97/285/41
f 97/285/41 98/286/41 91/283/41
f 98/287/42 95/288/42 94/289/42
f 94/289/42 91/290/42 98/287/42
