g right_part
v 5.82641 12.91 3.19132 0.494118 0.494118 0.52549
v 6.15705 12.91 4.0841 0.494118 0.494118 0.52549
v 6.15705 12.9775 4.0841 0.494118 0.494118 0.52549
v 5.82641 12.9775 3.19132 0.494118 0.494118 0.52549
v 6.35675 12.91 4.62333 0.494118 0.494118 0.52549
v 6.35675 13.21 4.62333 0.494118 0.494118 0.52549
v 5.51593 13.21 2.353 0.494118 0.494118 0.52549
v 5.51593 12.91 2.353 0.494118 0.494118 0.52549
v 5.60942 13.21 2.37043 0.494118 0.494118 0.52549
v 5.60942 12.91 2.37043 0.494118 0.494118 0.52549
v 5.70149 13.21 2.39425 0.494118 0.494118 0.52549
v 5.70149 12.91 2.39425 0.494118 0.494118 0.52549
v 5.79171 13.21 2.42434 0.494118 0.494118 0.52549
v 5.79171 12.91 2.42434 0.494118 0.494118 0.52549
v 5.87964 13.21 2.46056 0.494118 0.494118 0.52549
v 5.87964 12.91 2.46056 0.494118 0.494118 0.52549
v 5.96488 13.21 2.50274 0.494118 0.494118 0.52549
v 5.96488 12.91 2.50274 0.494118 0.494118 0.52549
v 6.04701 13.21 2.55068 0.494118 0.494118 0.52549
v 6.04701 12.91 2.55068 0.494118 0.494118 0.52549
v 6.12566 13.21 2.60415 0.494118 0.494118 0.52549
v 6.12566 12.91 2.60415 0.494118 0.494118 0.52549
v 6.20044 13.21 2.6629 0.494118 0.494118 0.52549
v 6.20044 12.91 2.6629 0.494118 0.494118 0.52549
v 6.27102 13.21 2.72664 0.494118 0.494118 0.52549
v 6.27102 12.91 2.72664 0.494118 0.494118 0.52549
v 6.33704 13.21 2.79509 0.494118 0.494118 0.52549
v 6.33704 12.91 2.79509 0.494118 0.494118 0.52549
v 6.3982 13.21 2.86791 0.494118 0.494118 0.52549
v 6.3982 12.91 2.86791 0.494118 0.494118 0.52549
v 6.45422 13.21 2.94477 0.494118 0.494118 0.52549
v 6.45422 12.91 2.94477 0.494118 0.494118 0.52549
v 6.50482 13.21 3.02529 0.494118 0.494118 0.52549
v 6.50482 12.91 3.02529 0.494118 0.494118 0.52549
v 6.54976 13.21 3.1091 0.494118 0.494118 0.52549
v 6.54976 12.91 3.1091 0.494118 0.494118 0.52549
v 6.58884 13.21 3.1958 0.494118 0.494118 0.52549
v 6.58884 12.91 3.1958 0.494118 0.494118 0.52549
v 6.62187 13.21 3.28498 0.494118 0.494118 0.52549
v 6.62187 12.91 3.28498 0.494118 0.494118 0.52549
v 6.64869 13.21 3.37622 0.494118 0.494118 0.52549
v 6.64869 12.91 3.37622 0.494118 0.494118 0.52549
v 6.66918 13.21 3.46909 0.494118 0.494118 0.52549
v 6.66918 12.91 3.46909 0.494118 0.494118 0.52549
v 6.68323 13.21 3.56315 0.494118 0.494118 0.52549
v 6.68323 12.91 3.56315 0.494118 0.494118 0.52549
v 6.69079 13.21 3.65795 0.494118 0.494118 0.52549
v 6.69079 12.91 3.65795 0.494118 0.494118 0.52549
v 6.69182 13.21 3.75305 0.494118 0.494118 0.52549
v 6.69182 12.91 3.75305 0.494118 0.494118 0.52549
v 6.6863 13.21 3.84799 0.494118 0.494118 0.52549
v 6.6863 12.91 3.84799 0.494118 0.494118 0.52549
v 6.67428 13.21 3.94232 0.494118 0.494118 0.52549
v 6.67428 12.91 3.94232 0.494118 0.494118 0.52549
v 6.6558 13.21 4.03561 0.494118 0.494118 0.52549
v 6.6558 12.91 4.03561 0.494118 0.494118 0.52549
v 6.63095 13.21 4.12741 0.494118 0.494118 0.52549
v 6.63095 12.91 4.12741 0.494118 0.494118 0.52549
v 6.59985 13.21 4.21728 0.494118 0.494118 0.52549
v 6.59985 12.91 4.21728 0.494118 0.494118 0.52549
v 6.56265 13.21 4.30481 0.494118 0.494118 0.52549
v 6.56265 12.91 4.30481 0.494118 0.494118 0.52549
v 6.51953 13.21 4.38957 0.494118 0.494118 0.52549
v 6.51953 12.91 4.38957 0.494118 0.494118 0.52549
v 6.47067 13.21 4.47116 0.494118 0.494118 0.52549
v 6.47067 12.91 4.47116 0.494118 0.494118 0.52549
v 6.41633 13.21 4.5492 0.494118 0.494118 0.52549
v 6.41633 12.91 4.5492 0.494118 0.494118 0.52549
vn -0.937755 -0 0.347297
vn 0.149437 0 -0.988771
vn 0.217039 0 -0.976163
vn 0.283615 0 -0.958938
vn 0.348849 0 -0.937179
vn 0.412434 0 -0.910988
vn 0.474068 0 -0.880488
vn 0.533461 0 -0.845825
vn 0.59033 0 -0.807162
vn 0.644408 0 -0.764682
vn 0.695439 0 -0.718585
vn 0.743181 0 -0.669091
vn 0.787408 0 -0.616432
vn 0.827912 0 -0.560858
vn 0.8645 0 -0.502632
vn 0.897001 0 -0.442029
vn 0.925259 0 -0.379336
vn 0.949142 0 -0.314848
vn 0.968536 0 -0.248872
vn 0.98335 0 -0.181719
vn 0.993514 0 -0.113707
vn 0.99898 0 -0.0451566
vn 0.999721 -0 0.0236071
vn 0.995735 -0 0.0922592
vn 0.98704 -0 0.160475
vn 0.973677 -0 0.227932
vn 0.95571 -0 0.294311
vn 0.933223 -0 0.359298
vn 0.906323 -0 0.422586
vn 0.875137 -0 0.483876
vn 0.839812 -0 0.542877
vn 0.800516 -0 0.599311
vn 0.757434 -0 0.652911
vn -0 1 -1.22465e-16
vt 0.476022 -0.0675
vt -0.476022 -0.0675
vt -0.476022 0
vt 0.476022 0
vt -1.05104 -0.0675
vt -1.05104 0.2325
vt -0.476022 0
vt 1.36999 0.2325
vt 0.476022 0
vt 1.36999 -0.0675
vt 0.476022 -0.0675
vt -0.476022 -0.0675
vt 0.149999 0
vt 0.149999 -0.3
vt 0.21878 -0.3
vt 0.21878 0
vt 0.287562 -0.3
vt 0.287562 0
vt 0.356343 -0.3
vt 0.356343 0
vt 0.425124 -0.3
vt 0.425124 0
vt 0.493905 -0.3
vt 0.493905 0
vt 0.562687 -0.3
vt 0.562687 0
vt 0.631468 -0.3
vt 0.631468 0
vt 0.700249 -0.3
vt 0.700249 0
vt 0.769031 -0.3
vt 0.769031 0
vt 0.837812 -0.3
vt 0.837812 0
vt 0.906593 -0.3
vt 0.906593 0
vt 0.975374 -0.3
vt 0.975374 0
vt 1.04416 -0.3
vt 1.04416 0
vt 1.11294 -0.3
vt 1.11294 0
vt 1.18172 -0.3
vt 1.18172 0
vt 1.2505 -0.3
vt 1.2505 0
vt 1.31928 -0.3
vt 1.31928 0
vt 1.38806 -0.3
vt 1.38806 0
vt 1.45684 -0.3
vt 1.45684 0
vt 1.52562 -0.3
vt 1.52562 0
vt 1.59441 -0.3
vt 1.59441 0
vt 1.66319 -0.3
vt 1.66319 0
vt 1.73197 -0.3
vt 1.73197 0
vt 1.80075 -0.3
vt 1.80075 0
vt 1.86953 -0.3
vt 1.86953 0
vt 1.93831 -0.3
vt 1.93831 0
vt 2.00709 -0.3
vt 2.00709 0
vt 2.07587 -0.3
vt 2.07587 0
vt 2.14466 -0.3
vt 2.14466 0
vt 2.21344 -0.3
vt 2.21344 0
vt 2.28222 -0.3
vt 2.28222 0
vt 0.0862524 1.08371
vt 0.288583 0.762905
vt 0.324804 0.674971
vt 0.198468 0.930276
vt 0.246405 0.848141
vt 0.354896 0.584757
vt 0.145 1.00892
vt 0.396153 0.399198
vt -0.0459433 1.2203
vt 0.0225043 1.15428
vt -0.195621 1.33748
vt -0.118767 1.28147
vt -0.359954 1.43303
vt -0.276144 1.38808
vt -0.535836 1.50514
vt -0.446655 1.47211
vt -1.72201 1.35394
vt -1.64042 1.40279
vt -1.55566 1.44592
vt 0.378717 0.492687
vt -0.719945 1.55244
vt -0.627077 1.53196
vt -0.908802 1.57406
vt -0.814001 1.5665
vt -1.09884 1.56957
vt -1.0039 1.57508
vt -1.28646 1.53907
vt -1.19318 1.55755
vt -1.46813 1.48312
vt -1.37826 1.51422
vt -1.80006 1.2996
vt -1.87418 1.24002
f 1/1/1 2/2/1 3/3/1
f 3/3/1 4/4/1 1/1/1
f 5/5/1 6/6/1 3/7/1
f 6/6/1 7/8/1 4/9/1
f 4/9/1 3/7/1 6/6/1
f 8/10/1 1/11/1 4/9/1
f 4/9/1 7/8/1 8/10/1
f 3/7/1 2/12/1 5/5/1
f 8/13/2 7/14/2 9/15/3
f 10/16/3 9/15/3 11/17/4
f 12/18/4 11/17/4 13/19/5
f 14/20/5 13/19/5 15/21/6
f 16/22/6 15/21/6 17/23/7
f 18/24/7 17/23/7 19/25/8
f 20/26/8 19/25/8 21/27/9
f 22/28/9 21/27/9 23/29/10
f 24/30/10 23/29/10 25/31/11
f 26/32/11 25/31/11 27/33/12
f 28/34/12 27/33/12 29/35/13
f 30/36/13 29/35/13 31/37/14
f 32/38/14 31/37/14 33/39/15
f 34/40/15 33/39/15 35/41/16
f 36/42/16 35/41/16 37/43/17
f 38/44/17 37/43/17 39/45/18
f 40/46/18 39/45/18 41/47/19
f 42/48/19 41/47/19 43/49/20
f 44/50/20 43/49/20 45/51/21
f 46/52/21 45/51/21 47/53/22
f 48/54/22 47/53/22 49/55/23
f 50/56/23 49/55/23 51/57/24
f 52/58/24 51/57/24 53/59/25
f 54/60/25 53/59/25 55/61/26
f 56/62/26 55/61/26 57/63/27
f 58/64/27 57/63/27 59/65/28
f 60/66/28 59/65/28 61/67/29
f 62/68/29 61/67/29 63/69/30
f 64/70/30 63/69/30 65/71/31
f 66/72/31 65/71/31 67/73/32
f 68/74/32 67/73/32 6/75/33
f 6/75/33 5/76/33 68/74/32
f 67/73/32 68/74/32 66/72/31
f 65/71/31 66/72/31 64/70/30
f 63/69/30 64/70/30 62/68/29
f 61/67/29 62/68/29 60/66/28
f 59/65/28 60/66/28 58/64/27
f 57/63/27 58/64/27 56/62/26
f 55/61/26 56/62/26 54/60/25
f 53/59/25 54/60/25 52/58/24
f 51/57/24 52/58/24 50/56/23
f 49/55/23 50/56/23 48/54/22
f 47/53/22 48/54/22 46/52/21
f 45/51/21 46/52/21 44/50/20
f 43/49/20 44/50/20 42/48/19
f 41/47/19 42/48/19 40/46/18
f 39/45/18 40/46/18 38/44/17
f 37/43/17 38/44/17 36/42/16
f 35/41/16 36/42/16 34/40/15
f 33/39/15 34/40/15 32/38/14
f 31/37/14 32/38/14 30/36/13
f 29/35/13 30/36/13 28/34/12
f 27/33/12 28/34/12 26/32/11
f 25/31/11 26/32/11 24/30/10
f 23/29/10 24/30/10 22/28/9
f 21/27/9 22/28/9 20/26/8
f 19/25/8 20/26/8 18/24/7
f 17/23/7 18/24/7 16/22/6
f 15/21/6 16/22/6 14/20/5
f 13/19/5 14/20/5 12/18/4
f 11/17/4 12/18/4 10/16/3
f 9/15/3 10/16/3 8/13/2
f 23/77/34 15/78/34 13/79/34
f 23/77/34 19/80/34 17/81/34
f 13/79/34 11/82/34 23/77/34
f 23/77/34 21/83/34 19/80/34
f 7/84/34 27/85/34 25/86/34
f 7/84/34 31/87/34 29/88/34
f 7/84/34 35/89/34 33/90/34
f 7/84/34 39/91/34 37/92/34
f 7/84/34 65/93/34 63/94/34
f 17/81/34 15/78/34 23/77/34
f 29/88/34 27/85/34 7/84/34
f 37/92/34 35/89/34 7/84/34
f 63/94/34 61/95/34 7/84/34
f 11/82/34 9/96/34 23/77/34
f 33/90/34 31/87/34 7/84/34
f 7/84/34 43/97/34 41/98/34
f 7/84/34 47/99/34 45/100/34
f 7/84/34 51/101/34 49/102/34
f 7/84/34 55/103/34 53/104/34
f 7/84/34 59/105/34 57/106/34
f 7/84/34 67/107/34 65/93/34
f 25/86/34 23/77/34 7/84/34
f 45/100/34 43/97/34 7/84/34
f 53/104/34 51/101/34 7/84/34
f 61/95/34 59/105/34 7/84/34
f 41/98/34 39/91/34 7/84/34
f 57/106/34 55/103/34 7/84/34
f 49/102/34 47/99/34 7/84/34
f 7/84/34 6/108/34 67/107/34
f 9/96/34 7/84/34 23/77/34
v 6.15705 12.91 4.0841 0.803922 0.803922 0.803922
v 5.82641 12.91 3.19132 0.803922 0.803922 0.803922
v 6.69182 12.91 3.75305 0.803922 0.803922 0.803922
v 5.87964 12.91 2.46056 0.803922 0.803922 0.803922
v 5.96488 12.91 2.50274 0.803922 0.803922 0.803922
v 6.69079 12.91 3.65795 0.803922 0.803922 0.803922
v 6.04701 12.91 2.55068 0.803922 0.803922 0.803922
v 5.70149 12.91 2.39425 0.803922 0.803922 0.803922
v 5.79171 12.91 2.42434 0.803922 0.803922 0.803922
v 6.68323 12.91 3.56315 0.803922 0.803922 0.803922
v 6.58884 12.91 3.1958 0.803922 0.803922 0.803922
v 6.62187 12.91 3.28498 0.803922 0.803922 0.803922
v 6.50482 12.91 3.02529 0.803922 0.803922 0.803922
v 6.54976 12.91 3.1091 0.803922 0.803922 0.803922
v 6.47067 12.91 4.47116 0.803922 0.803922 0.803922
v 6.41633 12.91 4.5492 0.803922 0.803922 0.803922
v 6.56265 12.91 4.30481 0.803922 0.803922 0.803922
v 6.51953 12.91 4.38957 0.803922 0.803922 0.803922
v 6.12566 12.91 2.60415 0.803922 0.803922 0.803922
v 6.20044 12.91 2.6629 0.803922 0.803922 0.803922
v 5.51593 12.91 2.353 0.803922 0.803922 0.803922
v 5.60942 12.91 2.37043 0.803922 0.803922 0.803922
v 6.66918 12.91 3.46909 0.803922 0.803922 0.803922
v 6.6558 12.91 4.03561 0.803922 0.803922 0.803922
v 6.63095 12.91 4.12741 0.803922 0.803922 0.803922
v 6.6863 12.91 3.84799 0.803922 0.803922 0.803922
v 6.67428 12.91 3.94232 0.803922 0.803922 0.803922
v 6.27102 12.91 2.72664 0.803922 0.803922 0.803922
v 6.64869 12.91 3.37622 0.803922 0.803922 0.803922
v 6.45422 12.91 2.94477 0.803922 0.803922 0.803922
v 6.59985 12.91 4.21728 0.803922 0.803922 0.803922
v 6.33704 12.91 2.79509 0.803922 0.803922 0.803922
v 6.3982 12.91 2.86791 0.803922 0.803922 0.803922
v 6.35675 12.91 4.62333 0.803922 0.803922 0.803922
vn -0 -1 -0
vt 1.38028 3.154
vt 1.04963 2.26122
vt 1.91505 2.82295
vt 1.10287 1.53047
vt 1.1881 1.57264
vt 1.91402 2.72785
vt 1.27024 1.62058
vt 0.92472 1.46415
vt 1.01493 1.49424
vt 1.90646 2.63305
vt 1.81207 2.2657
vt 1.8451 2.35488
vt 1.72804 2.09519
vt 1.77299 2.179
vt 1.6939 3.54106
vt 1.63956 3.61911
vt 1.78588 3.37471
vt 1.74275 3.45947
vt 1.34889 1.67405
vt 1.42367 1.7328
vt 0.739162 1.4229
vt 0.83265 1.44033
vt 1.89241 2.53899
vt 1.87903 3.10551
vt 1.85418 3.19731
vt 1.90953 2.91789
vt 1.89751 3.01222
vt 1.49424 1.79654
vt 1.87192 2.44613
vt 1.67745 2.01467
vt 1.82308 3.28718
vt 1.56027 1.86499
vt 1.62143 1.93782
vt 1.57998 3.69323
f 69/109/35 70/110/35 71/111/35
f 70/110/35 72/112/35 73/113/35
f 70/110/35 74/114/35 71/111/35
f 73/113/35 75/115/35 70/110/35
f 70/110/35 76/116/35 77/117/35
f 70/110/35 78/118/35 74/114/35
f 70/110/35 79/119/35 80/120/35
f 70/110/35 81/121/35 82/122/35
f 69/109/35 83/123/35 84/124/35
f 69/109/35 85/125/35 86/126/35
f 70/110/35 87/127/35 88/128/35
f 77/117/35 72/112/35 70/110/35
f 70/110/35 89/129/35 90/130/35
f 70/110/35 91/131/35 78/118/35
f 82/122/35 79/119/35 70/110/35
f 86/126/35 83/123/35 69/109/35
f 69/109/35 92/132/35 93/133/35
f 69/109/35 94/134/35 95/135/35
f 88/128/35 96/136/35 70/110/35
f 90/130/35 76/116/35 70/110/35
f 70/110/35 97/137/35 91/131/35
f 70/110/35 98/138/35 81/121/35
f 69/109/35 99/139/35 85/125/35
f 95/135/35 92/132/35 69/109/35
f 70/110/35 100/140/35 101/141/35
f 75/115/35 87/127/35 70/110/35
f 80/120/35 97/137/35 70/110/35
f 93/133/35 99/139/35 69/109/35
f 96/136/35 100/140/35 70/110/35
f 84/124/35 102/142/35 69/109/35
f 71/111/35 94/134/35 69/109/35
f 101/141/35 98/138/35 70/110/35
