g flashlight_case
v 1.77177 12.072 3.232 0.494118 0.494118 0.52549
v 1.82377 12.072 3.18 0.494118 0.494118 0.52549
v 1.82377 12.02 3.232 0.494118 0.494118 0.52549
v 1.95077 12.072 3.18 0.494118 0.494118 0.52549
v 1.95077 12.02 3.232 0.494118 0.494118 0.52549
v 1.82377 12.02 3.528 0.494118 0.494118 0.52549
v 1.77177 12.072 3.528 0.494118 0.494118 0.52549
v 1.77177 12.218 3.232 0.494118 0.494118 0.52549
v 1.82377 12.218 3.18 0.494118 0.494118 0.52549
v 1.77177 12.218 3.528 0.494118 0.494118 0.52549
v 1.82377 12.072 3.58 0.494118 0.494118 0.52549
v 1.95077 12.02 3.528 0.494118 0.494118 0.52549
v 2.00277 12.072 3.232 0.494118 0.494118 0.52549
v 1.95077 12.218 3.18 0.494118 0.494118 0.52549
v 1.82377 12.27 3.232 0.494118 0.494118 0.52549
v 2.00277 12.218 3.232 0.494118 0.494118 0.52549
v 2.00277 12.072 3.528 0.494118 0.494118 0.52549
v 1.95077 12.072 3.58 0.494118 0.494118 0.52549
v 1.82377 12.218 3.58 0.494118 0.494118 0.52549
v 1.82377 12.27 3.528 0.494118 0.494118 0.52549
v 1.95077 12.27 3.232 0.494118 0.494118 0.52549
v 1.95077 12.27 3.528 0.494118 0.494118 0.52549
v 2.00277 12.218 3.528 0.494118 0.494118 0.52549
v 1.95077 12.218 3.58 0.494118 0.494118 0.52549
vn -0.57735 -0.57735 -0.57735
vn -0 -0.707107 -0.707107
vn -0.707107 -0.707107 -0
vn -0.707107 0 -0.707107
vn -1 -0 -0
vn -0.57735 -0.57735 0.57735
vn 0 -1 0
vn 0.57735 -0.57735 -0.57735
vn 0 0 -1
vn -0.57735 0.57735 -0.57735
vn 0.707107 -0 -0.707107
vn 0.707107 -0.707107 0
vn -0 -0.707107 0.707107
vn -0.707107 0 0.707107
vn -0.707107 0.707107 -0
vn 0 0.707107 -0.707107
vn 0.57735 0.57735 -0.57735
vn 0.707107 0.707107 0
vn 1 0 0
vn 0.707107 -0 0.707107
vn 0.57735 -0.57735 0.57735
vn 0 0 1
vn 0 0.707107 0.707107
vn -0 1 -0
vn -0.57735 0.57735 0.57735
vn 0.57735 0.57735 0.57735
vt -0.0367696 -0.0636867
vt 0 0
vt -0.0735391 0
vt 0.179 0
vt 0.052 0
vt 0.052 0.0735391
vt 0.179 0.0735391
vt -3.702 0.0735391
vt -3.998 0.0735391
vt -3.998 0
vt -3.702 0
vt 11.802 0
vt 11.948 0
vt 11.948 0.0735391
vt 11.802 0.0735391
vt 11.802 3.702
vt 11.802 3.998
vt 11.948 3.998
vt 11.948 3.702
vt -0.0735391 0
vt -0.0367696 -0.0636867
vt 0 0
vt 0.148 -0.052
vt -0.148 -0.052
vt -0.148 -0.179
vt 0.148 -0.179
vt 0.0367696 0.0636867
vt 0 0
vt 0.0735391 0
vt 0.052 0.073
vt 0.052 -0.073
vt 0.179 -0.073
vt 0.179 0.073
vt 0 0
vt -0.0735391 0
vt -0.0367696 -0.0636867
vt 0.073 0
vt -0.073 0
vt -0.073 0.0735391
vt 0.073 0.0735391
vt -0.148 0.0735391
vt 0.148 0.0735391
vt 0.148 0
vt -0.148 0
vt 0.179 0
vt 0.052 0
vt 0.052 0.0735391
vt 0.179 0.0735391
vt -11.802 0.0735391
vt -11.948 0.0735391
vt -11.948 0
vt -11.802 0
vt 3.702 0.0735391
vt 3.998 0.0735391
vt 3.998 0
vt 3.702 0
vt -0.052 0.0735391
vt -0.179 0.0735391
vt -0.179 -0
vt -0.052 -0
vt 0.0735391 0
vt 0.0367696 0.0636867
vt 0 0
vt -3.702 0.0735391
vt -3.998 0.0735391
vt -3.998 0
vt -3.702 0
vt 11.802 3.998
vt 11.802 3.702
vt 11.948 3.702
vt 11.948 3.998
vt -0.073 0.0735391
vt 0.073 0.0735391
vt 0.073 0
vt -0.073 0
vt 0 0
vt 0.0735391 0
vt 0.0367696 0.0636867
vt -0.052 -0.073
vt -0.052 0.073
vt -0.179 0.073
vt -0.179 -0.073
vt -0.179 0
vt -0.052 0
vt -0.052 0.0735391
vt -0.179 0.0735391
vt -3.998 -0.052
vt -3.702 -0.052
vt -3.702 -0.179
vt -3.998 -0.179
vt 0 0
vt -0.0735391 0
vt -0.0367696 -0.0636867
vt 0 0
vt 0.0735391 0
vt 0.0367696 0.0636867
f 1/1/1 2/2/1 3/3/1
f 2/4/2 4/5/2 5/6/2
f 5/6/2 3/7/2 2/4/2
f 3/8/3 6/9/3 7/10/3
f 7/10/3 1/11/3 3/8/3
f 1/12/4 8/13/4 9/14/4
f 9/14/4 2/15/4 1/12/4
f 1/16/5 7/17/5 10/18/5
f 10/18/5 8/19/5 1/16/5
f 11/20/6 7/21/6 6/22/6
f 5/23/7 12/24/7 6/25/7
f 6/25/7 3/26/7 5/23/7
f 13/27/8 5/28/8 4/29/8
f 14/30/9 4/31/9 2/32/9
f 2/32/9 9/33/9 14/30/9
f 15/34/10 9/35/10 8/36/10
f 4/37/11 14/38/11 16/39/11
f 16/39/11 13/40/11 4/37/11
f 13/41/12 17/42/12 12/43/12
f 12/43/12 5/44/12 13/41/12
f 6/45/13 12/46/13 18/47/13
f 18/47/13 11/48/13 6/45/13
f 11/49/14 19/50/14 10/51/14
f 10/51/14 7/52/14 11/49/14
f 8/53/15 10/54/15 20/55/15
f 20/55/15 15/56/15 8/53/15
f 14/57/16 9/58/16 15/59/16
f 15/59/16 21/60/16 14/57/16
f 21/61/17 16/62/17 14/63/17
f 21/64/18 22/65/18 23/66/18
f 23/66/18 16/67/18 21/64/18
f 17/68/19 13/69/19 16/70/19
f 16/70/19 23/71/19 17/68/19
f 17/72/20 23/73/20 24/74/20
f 24/74/20 18/75/20 17/72/20
f 18/76/21 12/77/21 17/78/21
f 18/79/22 24/80/22 19/81/22
f 19/81/22 11/82/22 18/79/22
f 19/83/23 24/84/23 22/85/23
f 22/85/23 20/86/23 19/83/23
f 22/87/24 21/88/24 15/89/24
f 15/89/24 20/90/24 22/87/24
f 19/91/25 20/92/25 10/93/25
f 22/94/26 24/95/26 23/96/26
