g box_locked
v 2.47519 8.54713 2.1355 0.494118 0.494118 0.52549
v 2.47519 6.10314 2.1355 0.494118 0.494118 0.52549
v 2.50242 6.10314 2.17946 0.494118 0.494118 0.52549
v 2.50242 8.54713 2.17946 0.494118 0.494118 0.52549
v 1.92431 6.10314 2.53749 0.494118 0.494118 0.52549
v 2.47262 6.10314 2.13911 0.494118 0.494118 0.52549
v 1.89798 6.10314 2.49498 0.494118 0.494118 0.52549
v 1.92431 8.54713 2.53749 0.494118 0.494118 0.52549
v 1.89798 8.54713 2.49498 0.494118 0.494118 0.52549
v 2.47262 8.54713 2.13911 0.494118 0.494118 0.52549
v 2.47262 5.91814 2.13911 0.494118 0.494118 0.52549
v 1.85056 5.91814 2.52434 0.494118 0.494118 0.52549
v 1.85056 8.74187 2.52434 0.494118 0.494118 0.52549
v 2.47262 8.74187 2.13911 0.494118 0.494118 0.52549
v 2.51449 8.74187 2.08039 0.494118 0.494118 0.52549
v 2.51449 5.91814 2.08039 0.494118 0.494118 0.52549
v 2.24159 5.91814 1.45 0.494118 0.494118 0.52549
v 2.24159 8.74187 1.45 0.494118 0.494118 0.52549
v 2.62 5.91814 1.61404 0.494118 0.494118 0.52549
v 2.62 5.91814 1.45 0.494118 0.494118 0.52549
v 2.62 8.74187 1.61404 0.494118 0.494118 0.52549
v 2.62 8.74187 1.45 0.494118 0.494118 0.52549
v 2.50749 8.79055 2.17633 0.494118 0.494118 0.52549
v 1.80721 8.79055 2.61 0.494118 0.494118 0.52549
v 1.80721 5.86945 2.61 0.494118 0.494118 0.52549
v 2.50749 5.86945 2.17633 0.494118 0.494118 0.52549
v 2.56103 5.86945 2.10123 0.494118 0.494118 0.52549
v 2.56103 8.79055 2.10123 0.494118 0.494118 0.52549
v 2.67 8.79055 1.61963 0.494118 0.494118 0.52549
v 2.67 5.86945 1.61963 0.494118 0.494118 0.52549
v 2.67 5.86945 1.4 0.494118 0.494118 0.52549
v 2.67 8.79055 1.4 0.494118 0.494118 0.52549
v 2.20658 8.79055 1.4 0.494118 0.494118 0.52549
v 1.76618 8.79055 2.61 0.494118 0.494118 0.52549
v 2.20658 5.86945 1.4 0.494118 0.494118 0.52549
v 1.76618 5.86945 2.61 0.494118 0.494118 0.52549
vn -0.850173 0 0.526503
vn 0 1 0
vn 0 -1 0
vn 0.850173 0 -0.526503
vn -0.526503 0 -0.850173
vn -0.81422 0 -0.580557
vn 0.939693 -0 0.34202
vn -0 1 -0
vn 0 -1 0
vn -0 -0 1
vn -1 0 -0
vn -0.975346 0 -0.220679
vn 0.526503 -0 0.850173
vn 0.81422 -0 0.580557
vn 0.975346 -0 0.220679
vn 1 -0 -0
vn 0 1 0
vn 0 -1 0
vn -0 -0 -1
vn -0.939693 0 -0.34202
vn -0 -0 1
vt 0.0182841 1.22199
vt 0.0182841 -1.22199
vt 0.07 -1.22199
vt 0.07 1.22199
vt 0.238523 -0.252204
vt -0.119499 0.325914
vt -0.159852 0.296108
vt -0.163466 0.298686
vt 0.196014 -0.278529
vt -0.238523 -0.252204
vt -0.196014 -0.278529
vt 0.159852 0.296108
vt 0.119499 0.325914
vt 0.163466 0.298686
vt -0.07 -1.22199
vt -0.02 -1.22199
vt -0.02 1.22199
vt -0.07 1.22199
vt 0.36584 -3.77796
vt -0.36584 -3.77796
vt -0.310066 -3.59295
vt -0.36584 -0.954226
vt -0.310066 -1.14897
vt 0.36584 -0.954226
vt 0.36584 -1.14897
vt 0.36584 -3.59295
vt 0.0360583 -0.954226
vt -0.0360583 -0.954226
vt 0.0316193 -1.14897
vt -0.0360583 -3.77796
vt 0.0316193 -3.59295
vt 0.0360583 -3.77796
vt 0.0360583 -3.59295
vt 0.0360583 -1.14897
vt 0.571646 -0.954226
vt 0.571646 -3.77796
vt -0.571646 -3.77796
vt -0.571646 -0.954226
vt 0.61384 0.0340487
vt -0.460502 -0.35698
vt -0.0752701 0.265075
vt -0.0165515 0.306943
vt 0.449796 0.412458
vt 0.61384 0.412458
vt 0.61384 0.0340487
vt -0.0165515 0.306943
vt -0.0752701 0.265075
vt 0.449796 0.412458
vt 0.61384 0.412458
vt -0.460502 -0.35698
vt -0.189204 -3.77796
vt -0.189204 -0.954226
vt 0.189204 -0.954226
vt 0.189204 -3.77796
vt -0.0820223 -0.954226
vt 0.0820223 -0.954226
vt 0.0820223 -3.77796
vt -0.0820223 -3.77796
vt -0.239067 -0.954226
vt 0.239067 -0.954226
vt 0.239067 -3.77796
vt -0.239067 -3.77796
vt -0.0029805 2.87241
vt 0.820709 2.87241
vt 0.682981 2.62899
vt 0.820709 -0.048685
vt 0.682981 0.185003
vt -0.0029805 -0.048685
vt 0.0029805 0.185003
vt 0.0029805 2.62899
vt 0.0461132 -0.048685
vt -0.0461132 -0.048685
vt -0.0461132 2.87241
vt 0.0461132 2.87241
vt -0.246888 2.87241
vt 0.246888 2.87241
vt 0.246888 -0.048685
vt -0.246888 -0.048685
vt 0.19463 2.87241
vt 0.19463 -0.048685
vt -0.025 -0.048685
vt -0.025 2.87241
vt -0.65 -0.263419
vt 0.126325 0.0374913
vt 0.0512327 0.091034
vt 0.56 -0.703823
vt 0.56 -0.662788
vt -0.43037 0.2
vt -0.65 0.2
vt 0.66384 -0.000961711
vt -0.112485 0.299949
vt -0.54616 -0.40033
vt -0.0373924 0.353492
vt 0.44421 0.462458
vt 0.66384 0.462458
vt -0.54616 -0.441366
vt 0.23171 2.87241
vt 0.23171 -0.048685
vt -0.23171 -0.048685
vt -0.23171 2.87241
vt 0.670432 2.87241
vt 0.670432 -0.048685
vt -0.617223 -0.048685
vt -0.617223 2.87241
vt 0.0205179 2.87241
vt 0.0205179 -0.048685
vt -0.0205179 -0.048685
vt -0.0205179 2.87241
f 1/1/1 2/2/1 3/3/1
f 3/3/1 4/4/1 1/1/1
f 5/5/2 3/6/2 6/7/2
f 3/6/2 2/8/2 6/7/2
f 6/7/2 7/9/2 5/5/2
f 8/10/3 9/11/3 10/12/3
f 10/12/3 4/13/3 8/10/3
f 10/12/3 1/14/3 4/13/3
f 5/15/4 7/16/4 9/17/4
f 9/17/4 8/18/4 5/15/4
f 11/19/5 12/20/5 7/21/5
f 12/20/5 13/22/5 9/23/5
f 9/23/5 7/21/5 12/20/5
f 14/24/5 10/25/5 9/23/5
f 9/23/5 13/22/5 14/24/5
f 7/21/5 6/26/5 11/19/5
f 14/27/6 15/28/6 1/29/6
f 16/30/6 2/31/6 1/29/6
f 1/29/6 15/28/6 16/30/6
f 11/32/6 6/33/6 2/31/6
f 2/31/6 16/30/6 11/32/6
f 1/29/6 10/34/6 14/27/6
f 13/35/7 12/36/7 17/37/7
f 17/37/7 18/38/7 13/35/7
f 17/39/8 12/40/8 11/41/8
f 11/41/8 16/42/8 17/39/8
f 16/42/8 19/43/8 17/39/8
f 19/43/8 20/44/8 17/39/8
f 18/45/9 15/46/9 14/47/9
f 18/45/9 21/48/9 15/46/9
f 18/45/9 22/49/9 21/48/9
f 14/47/9 13/50/9 18/45/9
f 20/51/10 22/52/10 18/53/10
f 18/53/10 17/54/10 20/51/10
f 21/55/11 22/56/11 20/57/11
f 20/57/11 19/58/11 21/55/11
f 15/59/12 21/60/12 19/61/12
f 19/61/12 16/62/12 15/59/12
f 23/63/13 24/64/13 8/65/13
f 25/66/13 5/67/13 8/65/13
f 8/65/13 24/64/13 25/66/13
f 26/68/13 3/69/13 5/67/13
f 5/67/13 25/66/13 26/68/13
f 26/68/13 23/63/13 4/70/13
f 4/70/13 3/69/13 26/68/13
f 8/65/13 4/70/13 23/63/13
f 26/71/14 27/72/14 28/73/14
f 28/73/14 23/74/14 26/71/14
f 29/75/15 28/76/15 27/77/15
f 27/77/15 30/78/15 29/75/15
f 29/79/16 30/80/16 31/81/16
f 31/81/16 32/82/16 29/79/16
f 33/83/17 23/84/17 28/85/17
f 33/83/17 34/86/17 24/87/17
f 24/87/17 23/84/17 33/83/17
f 28/85/17 29/88/17 33/83/17
f 29/88/17 32/89/17 33/83/17
f 35/90/18 26/91/18 25/92/18
f 35/90/18 27/93/18 26/91/18
f 35/90/18 30/94/18 27/93/18
f 35/90/18 31/95/18 30/94/18
f 25/92/18 36/96/18 35/90/18
f 32/97/19 31/98/19 35/99/19
f 35/99/19 33/100/19 32/97/19
f 33/101/20 35/102/20 36/103/20
f 36/103/20 34/104/20 33/101/20
f 34/105/21 36/106/21 25/107/21
f 25/107/21 24/108/21 34/105/21
