g roof
v 2.2097 12.835 6.02665 0.494118 0.494118 0.52549
v 2.34619 12.835 6.40165 0.494118 0.494118 0.52549
v 8.27985 12.835 6.40165 0.494118 0.494118 0.52549
v 8.41634 12.835 6.02665 0.494118 0.494118 0.52549
v 2.34619 1.585 6.40165 0.494118 0.494118 0.52549
v 8.27985 1.585 6.40165 0.494118 0.494118 0.52549
v 2.2097 1.585 6.02665 0.494118 0.494118 0.52549
v 8.41634 1.585 6.02665 0.494118 0.494118 0.52549
vn 0 1 0
vn -0 1.22465e-16 1
vn -0.939693 -0 0.34202
vn 0.939693 -0 0.34202
vn 0 0 -1
vn 0 -1 1.22465e-16
vt -2.56707 5.09655
vt -2.43058 5.47155
vt 3.50308 5.47155
vt 3.63957 5.09655
vt -2.02055 18.75
vt 3.91312 18.75
vt 3.91312 7.5
vt -2.02055 7.5
vt -0.367579 12.975
vt -0.367579 1.725
vt -0.766646 1.725
vt -0.766646 12.975
vt 0.755681 12.975
vt 0.755681 1.725
vt 0.356615 1.725
vt 0.356615 12.975
vt 3.46871 12.975
vt -2.73793 12.975
vt -2.73793 1.725
vt 3.46871 1.725
vt -3.2775 -2.90704
vt -3.2775 3.29961
vt -3.6525 3.16312
vt -3.6525 -2.77055
f 1/1/1 2/2/1 3/3/1
f 3/3/1 4/4/1 1/1/1
f 5/5/2 6/6/2 3/7/2
f 3/7/2 2/8/2 5/5/2
f 1/9/3 7/10/3 5/11/3
f 5/11/3 2/12/3 1/9/3
f 3/13/4 6/14/4 8/15/4
f 8/15/4 4/16/4 3/13/4
f 1/17/5 4/18/5 8/19/5
f 8/19/5 7/20/5 1/17/5
f 7/21/6 8/22/6 6/23/6
f 6/23/6 5/24/6 7/21/6
