g left_part
v 4.46149 12.9775 4.0841 0.494118 0.494118 0.52549
v 4.46149 12.91 4.0841 0.494118 0.494118 0.52549
v 4.77692 12.91 3.19132 0.494118 0.494118 0.52549
v 4.77692 12.9775 3.19132 0.494118 0.494118 0.52549
v 4.26833 13.21 4.63086 0.494118 0.494118 0.52549
v 4.26833 12.91 4.63086 0.494118 0.494118 0.52549
v 5.07129 12.91 2.3581 0.494118 0.494118 0.52549
v 5.07129 13.21 2.3581 0.494118 0.494118 0.52549
v 4.20864 13.21 4.55772 0.494118 0.494118 0.52549
v 4.20864 12.91 4.55772 0.494118 0.494118 0.52549
v 4.15408 13.21 4.48068 0.494118 0.494118 0.52549
v 4.15408 12.91 4.48068 0.494118 0.494118 0.52549
v 4.1049 13.21 4.4001 0.494118 0.494118 0.52549
v 4.1049 12.91 4.4001 0.494118 0.494118 0.52549
v 4.06134 13.21 4.31636 0.494118 0.494118 0.52549
v 4.06134 12.91 4.31636 0.494118 0.494118 0.52549
v 4.02359 13.21 4.22984 0.494118 0.494118 0.52549
v 4.02359 12.91 4.22984 0.494118 0.494118 0.52549
v 3.99183 13.21 4.14094 0.494118 0.494118 0.52549
v 3.99183 12.91 4.14094 0.494118 0.494118 0.52549
v 3.96621 13.21 4.05008 0.494118 0.494118 0.52549
v 3.96621 12.91 4.05008 0.494118 0.494118 0.52549
v 3.94685 13.21 3.95769 0.494118 0.494118 0.52549
v 3.94685 12.91 3.95769 0.494118 0.494118 0.52549
v 3.93384 13.21 3.86419 0.494118 0.494118 0.52549
v 3.93384 12.91 3.86419 0.494118 0.494118 0.52549
v 3.92723 13.21 3.77002 0.494118 0.494118 0.52549
v 3.92723 12.91 3.77002 0.494118 0.494118 0.52549
v 3.92706 13.21 3.67562 0.494118 0.494118 0.52549
v 3.92706 12.91 3.67562 0.494118 0.494118 0.52549
v 3.93334 13.21 3.58143 0.494118 0.494118 0.52549
v 3.93334 12.91 3.58143 0.494118 0.494118 0.52549
v 3.94602 13.21 3.48789 0.494118 0.494118 0.52549
v 3.94602 12.91 3.48789 0.494118 0.494118 0.52549
v 3.96506 13.21 3.39543 0.494118 0.494118 0.52549
v 3.96506 12.91 3.39543 0.494118 0.494118 0.52549
v 3.99036 13.21 3.30449 0.494118 0.494118 0.52549
v 3.99036 12.91 3.30449 0.494118 0.494118 0.52549
v 4.02181 13.21 3.21548 0.494118 0.494118 0.52549
v 4.02181 12.91 3.21548 0.494118 0.494118 0.52549
v 4.05926 13.21 3.12882 0.494118 0.494118 0.52549
v 4.05926 12.91 3.12882 0.494118 0.494118 0.52549
v 4.10253 13.21 3.04492 0.494118 0.494118 0.52549
v 4.10253 12.91 3.04492 0.494118 0.494118 0.52549
v 4.15142 13.21 2.96417 0.494118 0.494118 0.52549
v 4.15142 12.91 2.96417 0.494118 0.494118 0.52549
v 4.20571 13.21 2.88695 0.494118 0.494118 0.52549
v 4.20571 12.91 2.88695 0.494118 0.494118 0.52549
v 4.26514 13.21 2.8136 0.494118 0.494118 0.52549
v 4.26514 12.91 2.8136 0.494118 0.494118 0.52549
v 4.32943 13.21 2.74448 0.494118 0.494118 0.52549
v 4.32943 12.91 2.74448 0.494118 0.494118 0.52549
v 4.39829 13.21 2.67991 0.494118 0.494118 0.52549
v 4.39829 12.91 2.67991 0.494118 0.494118 0.52549
v 4.4714 13.21 2.62019 0.494118 0.494118 0.52549
v 4.4714 12.91 2.62019 0.494118 0.494118 0.52549
v 4.5484 13.21 2.56559 0.494118 0.494118 0.52549
v 4.5484 12.91 2.56559 0.494118 0.494118 0.52549
v 4.62896 13.21 2.51637 0.494118 0.494118 0.52549
v 4.62896 12.91 2.51637 0.494118 0.494118 0.52549
v 4.71268 13.21 2.47277 0.494118 0.494118 0.52549
v 4.71268 12.91 2.47277 0.494118 0.494118 0.52549
v 4.79919 13.21 2.43497 0.494118 0.494118 0.52549
v 4.79919 12.91 2.43497 0.494118 0.494118 0.52549
v 4.88807 13.21 2.40317 0.494118 0.494118 0.52549
v 4.88807 12.91 2.40317 0.494118 0.494118 0.52549
v 4.97891 13.21 2.3775 0.494118 0.494118 0.52549
v 4.97891 12.91 2.3775 0.494118 0.494118 0.52549
vn 0.942884 -0 0.333122
vn -0.752709 0 0.658353
vn -0.795869 0 0.605469
vn -0.83532 0 0.549764
vn -0.870879 0 0.491497
vn -0.902381 0 0.43094
vn -0.929677 0 0.368375
vn -0.952642 0 0.304094
vn -0.971168 0 0.238395
vn -0.985169 0 0.171586
vn -0.99458 0 0.103978
vn -0.999356 0 0.0358846
vn -0.999476 0 -0.0323757
vn -0.994939 0 -0.100485
vn -0.985765 0 -0.168126
vn -0.971999 0 -0.234984
vn -0.953704 0 -0.300747
vn -0.930965 0 -0.365109
vn -0.903888 0 -0.427769
vn -0.8726 0 -0.488436
vn -0.837245 0 -0.546828
vn -0.79799 0 -0.602671
vn -0.755016 0 -0.655706
vn -0.708524 0 -0.705686
vn -0.658731 0 -0.752378
vn -0.605869 0 -0.795564
vn -0.550184 0 -0.835044
vn -0.491935 0 -0.870632
vn -0.431393 0 -0.902164
vn -0.368842 0 -0.929492
vn -0.304572 0 -0.952489
vn -0.238883 0 -0.971048
vn -0.172081 0 -0.985083
vn -0 1 -1.22465e-16
vt 0.473433 0
vt 0.473433 -0.0675
vt -0.473433 -0.0675
vt -0.473433 0
vt 1.05331 0.2325
vt 0.473433 0
vt -0.473433 0
vt 1.05331 -0.0675
vt 0.473433 -0.0675
vt -1.35713 -0.0675
vt -1.35713 0.2325
vt -0.473433 -0.0675
vt 3.99376 0
vt 3.99376 -0.3
vt 4.06203 -0.3
vt 4.06203 0
vt 4.13031 -0.3
vt 4.13031 0
vt 4.19858 -0.3
vt 4.19858 0
vt 4.26685 -0.3
vt 4.26685 0
vt 4.33513 -0.3
vt 4.33513 0
vt 4.4034 -0.3
vt 4.4034 0
vt 4.47168 -0.3
vt 4.47168 0
vt 4.53995 -0.3
vt 4.53995 0
vt 4.60822 -0.3
vt 4.60822 0
vt 4.6765 -0.3
vt 4.6765 0
vt 4.74477 -0.3
vt 4.74477 0
vt 4.81304 -0.3
vt 4.81304 0
vt 4.88132 -0.3
vt 4.88132 0
vt 4.94959 -0.3
vt 4.94959 0
vt 5.01786 -0.3
vt 5.01786 0
vt 5.08614 -0.3
vt 5.08614 0
vt 5.15441 -0.3
vt 5.15441 0
vt 5.22269 -0.3
vt 5.22269 0
vt 5.29096 -0.3
vt 5.29096 0
vt 5.35923 -0.3
vt 5.35923 0
vt 5.42751 -0.3
vt 5.42751 0
vt 5.49578 -0.3
vt 5.49578 0
vt 5.56405 -0.3
vt 5.56405 0
vt 5.63233 -0.3
vt 5.63233 0
vt 5.7006 -0.3
vt 5.7006 0
vt 5.76887 -0.3
vt 5.76887 0
vt 5.83715 -0.3
vt 5.83715 0
vt 5.90542 -0.3
vt 5.90542 0
vt 5.9737 -0.3
vt 5.9737 0
vt 6.04197 -0.3
vt 6.04197 0
vt 6.11024 -0.3
vt 6.11024 0
vt -1.11504 -1.1829
vt -0.832286 -1.1834
vt -0.926477 -1.18967
vt -0.738743 -1.17071
vt -1.20854 -1.16988
vt -1.02088 -1.1895
vt -1.56721 -1.05539
vt -0.555337 -1.12637
vt -0.646283 -1.15167
vt -1.73154 -0.962654
vt 0.0692377 -0.718444
vt 0.00466597 -0.787304
vt 0.183558 -0.56833
vt 0.128961 -0.645339
vt -1.39179 -1.1249
vt -1.48069 -1.09314
vt -1.30093 -1.15052
vt -0.46633 -1.09492
vt -0.295776 -1.01421
vt -0.379675 -1.05748
vt -0.137797 -0.911029
vt -0.215025 -0.965316
vt 0.276381 -0.404051
vt 0.232775 -0.487775
vt -0.064453 -0.851599
vt -1.65096 -1.01183
vt 0.345977 -0.228666
vt 0.314174 -0.317547
vt 0.391052 -0.0454401
vt 0.371643 -0.137823
vt -1.80857 -0.908095
vt -1.88171 -0.848409
f 1/1/1 2/2/1 3/3/1
f 3/3/1 4/4/1 1/1/1
f 5/5/1 1/6/1 4/7/1
f 6/8/1 2/9/1 1/6/1
f 7/10/1 8/11/1 4/7/1
f 1/6/1 5/5/1 6/8/1
f 4/7/1 8/11/1 5/5/1
f 4/7/1 3/12/1 7/10/1
f 6/13/2 5/14/2 9/15/3
f 10/16/3 9/15/3 11/17/4
f 12/18/4 11/17/4 13/19/5
f 14/20/5 13/19/5 15/21/6
f 16/22/6 15/21/6 17/23/7
f 18/24/7 17/23/7 19/25/8
f 20/26/8 19/25/8 21/27/9
f 22/28/9 21/27/9 23/29/10
f 24/30/10 23/29/10 25/31/11
f 26/32/11 25/31/11 27/33/12
f 28/34/12 27/33/12 29/35/13
f 30/36/13 29/35/13 31/37/14
f 32/38/14 31/37/14 33/39/15
f 34/40/15 33/39/15 35/41/16
f 36/42/16 35/41/16 37/43/17
f 38/44/17 37/43/17 39/45/18
f 40/46/18 39/45/18 41/47/19
f 42/48/19 41/47/19 43/49/20
f 44/50/20 43/49/20 45/51/21
f 46/52/21 45/51/21 47/53/22
f 48/54/22 47/53/22 49/55/23
f 50/56/23 49/55/23 51/57/24
f 52/58/24 51/57/24 53/59/25
f 54/60/25 53/59/25 55/61/26
f 56/62/26 55/61/26 57/63/27
f 58/64/27 57/63/27 59/65/28
f 60/66/28 59/65/28 61/67/29
f 62/68/29 61/67/29 63/69/30
f 64/70/30 63/69/30 65/71/31
f 66/72/31 65/71/31 67/73/32
f 68/74/32 67/73/32 8/75/33
f 8/75/33 7/76/33 68/74/32
f 67/73/32 68/74/32 66/72/31
f 65/71/31 66/72/31 64/70/30
f 63/69/30 64/70/30 62/68/29
f 61/67/29 62/68/29 60/66/28
f 59/65/28 60/66/28 58/64/27
f 57/63/27 58/64/27 56/62/26
f 55/61/26 56/62/26 54/60/25
f 53/59/25 54/60/25 52/58/24
f 51/57/24 52/58/24 50/56/23
f 49/55/23 50/56/23 48/54/22
f 47/53/22 48/54/22 46/52/21
f 45/51/21 46/52/21 44/50/20
f 43/49/20 44/50/20 42/48/19
f 41/47/19 42/48/19 40/46/18
f 39/45/18 40/46/18 38/44/17
f 37/43/17 38/44/17 36/42/16
f 35/41/16 36/42/16 34/40/15
f 33/39/15 34/40/15 32/38/14
f 31/37/14 32/38/14 30/36/13
f 29/35/13 30/36/13 28/34/12
f 27/33/12 28/34/12 26/32/11
f 25/31/11 26/32/11 24/30/10
f 23/29/10 24/30/10 22/28/9
f 21/27/9 22/28/9 20/26/8
f 19/25/8 20/26/8 18/24/7
f 17/23/7 18/24/7 16/22/6
f 15/21/6 16/22/6 14/20/5
f 13/19/5 14/20/5 12/18/4
f 11/17/4 12/18/4 10/16/3
f 9/15/3 10/16/3 6/13/2
f 25/77/34 31/78/34 29/79/34
f 33/80/34 25/77/34 23/81/34
f 25/77/34 33/80/34 31/78/34
f 29/79/34 27/82/34 25/77/34
f 15/83/34 37/84/34 35/85/34
f 11/86/34 53/87/34 51/88/34
f 11/86/34 57/89/34 55/90/34
f 33/80/34 19/91/34 17/92/34
f 23/81/34 21/93/34 33/80/34
f 15/83/34 39/94/34 37/84/34
f 15/83/34 43/95/34 41/96/34
f 11/86/34 47/97/34 45/98/34
f 55/90/34 53/87/34 11/86/34
f 11/86/34 61/99/34 59/100/34
f 21/93/34 19/91/34 33/80/34
f 41/96/34 39/94/34 15/83/34
f 11/86/34 49/101/34 47/97/34
f 59/100/34 57/89/34 11/86/34
f 43/95/34 15/83/34 13/102/34
f 35/85/34 33/80/34 15/83/34
f 51/88/34 49/101/34 11/86/34
f 11/86/34 65/103/34 63/104/34
f 17/92/34 15/83/34 33/80/34
f 63/104/34 61/99/34 11/86/34
f 45/98/34 43/95/34 11/86/34
f 11/86/34 8/105/34 67/106/34
f 8/105/34 11/86/34 9/107/34
f 67/106/34 65/103/34 11/86/34
f 13/102/34 11/86/34 43/95/34
f 9/107/34 5/108/34 8/105/34
v 4.77692 12.91 3.19132 0.803922 0.803922 0.803922
v 4.4714 12.91 2.62019 0.803922 0.803922 0.803922
v 4.5484 12.91 2.56559 0.803922 0.803922 0.803922
v 4.71268 12.91 2.47277 0.803922 0.803922 0.803922
v 4.79919 12.91 2.43497 0.803922 0.803922 0.803922
v 4.39829 12.91 2.67991 0.803922 0.803922 0.803922
v 4.46149 12.91 4.0841 0.803922 0.803922 0.803922
v 3.99183 12.91 4.14094 0.803922 0.803922 0.803922
v 3.96621 12.91 4.05008 0.803922 0.803922 0.803922
v 4.26833 12.91 4.63086 0.803922 0.803922 0.803922
v 4.20864 12.91 4.55772 0.803922 0.803922 0.803922
v 3.96506 12.91 3.39543 0.803922 0.803922 0.803922
v 3.99036 12.91 3.30449 0.803922 0.803922 0.803922
v 3.93334 12.91 3.58143 0.803922 0.803922 0.803922
v 3.94602 12.91 3.48789 0.803922 0.803922 0.803922
v 3.93384 12.91 3.86419 0.803922 0.803922 0.803922
v 3.92723 12.91 3.77002 0.803922 0.803922 0.803922
v 4.62896 12.91 2.51637 0.803922 0.803922 0.803922
v 4.32943 12.91 2.74448 0.803922 0.803922 0.803922
v 4.20571 12.91 2.88695 0.803922 0.803922 0.803922
v 4.26514 12.91 2.8136 0.803922 0.803922 0.803922
v 3.94685 12.91 3.95769 0.803922 0.803922 0.803922
v 4.06134 12.91 4.31636 0.803922 0.803922 0.803922
v 4.02359 12.91 4.22984 0.803922 0.803922 0.803922
v 4.15408 12.91 4.48068 0.803922 0.803922 0.803922
v 4.05926 12.91 3.12882 0.803922 0.803922 0.803922
v 4.10253 12.91 3.04492 0.803922 0.803922 0.803922
v 4.02181 12.91 3.21548 0.803922 0.803922 0.803922
v 3.92706 12.91 3.67562 0.803922 0.803922 0.803922
v 4.88807 12.91 2.40317 0.803922 0.803922 0.803922
v 4.1049 12.91 4.4001 0.803922 0.803922 0.803922
v 4.15142 12.91 2.96417 0.803922 0.803922 0.803922
v 4.97891 12.91 2.3775 0.803922 0.803922 0.803922
v 5.07129 12.91 2.3581 0.803922 0.803922 0.803922
vn -0 -1 -0
vt 0.000144884 2.26122
vt -0.305375 1.69009
vt -0.228366 1.63549
vt -0.0640877 1.54267
vt 0.0224164 1.50487
vt -0.37848 1.74981
vt -0.315277 3.154
vt -0.784939 3.21084
vt -0.810559 3.11998
vt -0.508445 3.70076
vt -0.568132 3.62762
vt -0.811708 2.46533
vt -0.786407 2.37439
vt -0.843432 2.65133
vt -0.830746 2.55779
vt -0.842936 2.93409
vt -0.849541 2.83992
vt -0.147812 1.58627
vt -0.447341 1.81438
vt -0.571065 1.95685
vt -0.511636 1.8835
vt -0.829922 3.02759
vt -0.715431 3.38626
vt -0.75318 3.29974
vt -0.622691 3.55058
vt -0.717515 2.19872
vt -0.674246 2.11482
vt -0.754961 2.28538
vt -0.849707 2.74553
vt 0.111297 1.47307
vt -0.671867 3.47001
vt -0.625353 2.03407
vt 0.202141 1.44741
vt 0.294523 1.428
f 69/109/35 70/110/35 71/111/35
f 69/109/35 72/112/35 73/113/35
f 69/109/35 74/114/35 70/110/35
f 75/115/35 76/116/35 77/117/35
f 75/115/35 78/118/35 79/119/35
f 69/109/35 80/120/35 81/121/35
f 69/109/35 82/122/35 83/123/35
f 75/115/35 84/124/35 85/125/35
f 69/109/35 86/126/35 72/112/35
f 69/109/35 87/127/35 74/114/35
f 69/109/35 88/128/35 89/129/35
f 77/117/35 90/130/35 75/115/35
f 75/115/35 91/131/35 92/132/35
f 79/119/35 93/133/35 75/115/35
f 69/109/35 94/134/35 95/135/35
f 81/121/35 96/136/35 69/109/35
f 69/109/35 97/137/35 82/122/35
f 85/125/35 69/109/35 75/115/35
f 73/113/35 98/138/35 69/109/35
f 89/129/35 87/127/35 69/109/35
f 92/132/35 76/116/35 75/115/35
f 93/133/35 99/139/35 75/115/35
f 96/136/35 94/134/35 69/109/35
f 85/125/35 97/137/35 69/109/35
f 71/111/35 86/126/35 69/109/35
f 99/139/35 91/131/35 75/115/35
f 83/123/35 80/120/35 69/109/35
f 69/109/35 100/140/35 88/128/35
f 95/135/35 100/140/35 69/109/35
f 98/138/35 101/141/35 69/109/35
f 101/141/35 102/142/35 69/109/35
f 90/130/35 84/124/35 75/115/35
