g bottom_part
v 4.77692 12.9775 3.19132 0.494118 0.494118 0.52549
v 4.77692 12.91 3.19132 0.494118 0.494118 0.52549
v 5.82641 12.91 3.19132 0.494118 0.494118 0.52549
v 5.82641 12.9775 3.19132 0.494118 0.494118 0.52549
v 4.77692 13.21 3.19132 0.494118 0.494118 0.52549
v 5.82641 13.21 3.19132 0.494118 0.494118 0.52549
v 5.07129 13.21 2.3581 0.494118 0.494118 0.52549
v 5.07129 12.91 2.3581 0.494118 0.494118 0.52549
v 5.51593 13.21 2.353 0.494118 0.494118 0.52549
v 5.51593 12.91 2.353 0.494118 0.494118 0.52549
v 5.33807 13.21 2.33777 0.494118 0.494118 0.52549
v 5.24877 13.21 2.33879 0.494118 0.494118 0.52549
v 5.15972 13.21 2.34558 0.494118 0.494118 0.52549
v 5.42724 13.21 2.34251 0.494118 0.494118 0.52549
v 5.15972 12.91 2.34558 0.494118 0.494118 0.52549
v 5.24877 12.91 2.33879 0.494118 0.494118 0.52549
v 5.33807 12.91 2.33777 0.494118 0.494118 0.52549
v 5.42724 12.91 2.34251 0.494118 0.494118 0.52549
vn -0 -0 1
vn -0.942884 0 -0.333122
vn 0.937755 0 -0.347297
vn -0 1 -1.22465e-16
vn -0.172081 0 -0.985083
vn -0.108142 0 -0.994135
vn -0.0437517 0 -0.999042
vn 0.0208211 0 -0.999783
vn 0.0853071 0 -0.996355
vn 0.149437 0 -0.988771
vt 0.524745 0
vt 0.524745 -0.0675
vt -0.524745 -0.0675
vt -0.524745 0
vt 0.524745 0.2325
vt 0.524745 0
vt -0.524745 0
vt -0.524745 0.2325
vt -1.35713 0.2325
vt -1.35713 -0.0675
vt -0.473433 0
vt -0.473433 -0.0675
vt -0.473433 0.2325
vt 1.36999 0.2325
vt 0.476022 0.2325
vt 0.476022 0
vt 1.36999 -0.0675
vt 0.476022 -0.0675
vt -0.44217 0.709671
vt 0.411382 0.221331
vt 0.410357 0.132031
vt -0.44217 -0.339818
vt 0.403571 0.0429837
vt 0.40664 0.310511
vt 0.396153 0.399198
vt 0.391052 -0.0454401
vt 6.11024 0
vt 6.11024 -0.3
vt 6.17483 -0.3
vt 6.17483 0
vt 6.23942 -0.3
vt 6.23942 0
vt 0.0208226 -0.3
vt 0.0208226 0
vt 0.0854109 -0.3
vt 0.0854109 0
vt 0.149999 -0.3
vt 0.149999 0
f 1/1/1 2/2/1 3/3/1
f 3/3/1 4/4/1 1/1/1
f 5/5/1 1/6/1 4/7/1
f 4/7/1 6/8/1 5/5/1
f 7/9/2 8/10/2 1/11/2
f 8/10/2 2/12/2 1/11/2
f 1/11/2 5/13/2 7/9/2
f 9/14/3 6/15/3 4/16/3
f 4/16/3 10/17/3 9/14/3
f 4/16/3 3/18/3 10/17/3
f 6/19/4 11/20/4 12/21/4
f 5/22/4 12/21/4 13/23/4
f 6/19/4 14/24/4 11/20/4
f 12/21/4 5/22/4 6/19/4
f 6/19/4 9/25/4 14/24/4
f 13/23/4 7/26/4 5/22/4
f 8/27/5 7/28/5 13/29/6
f 15/30/6 13/29/6 12/31/7
f 16/32/7 12/31/7 11/33/8
f 17/34/8 11/33/8 14/35/9
f 18/36/9 14/35/9 9/37/10
f 9/37/10 10/38/10 18/36/9
f 14/35/9 18/36/9 17/34/8
f 11/33/8 17/34/8 16/32/7
f 12/31/7 16/32/7 15/30/6
f 13/29/6 15/30/6 8/27/5
v 5.82641 12.91 3.19132 0.0745098 0.0745098 0.0745098
v 4.77692 12.91 3.19132 0.0745098 0.0745098 0.0745098
v 5.24877 12.91 2.33879 0.0745098 0.0745098 0.0745098
v 5.15972 12.91 2.34558 0.0745098 0.0745098 0.0745098
v 5.33807 12.91 2.33777 0.0745098 0.0745098 0.0745098
v 5.42724 12.91 2.34251 0.0745098 0.0745098 0.0745098
v 5.07129 12.91 2.3581 0.0745098 0.0745098 0.0745098
v 5.51593 12.91 2.353 0.0745098 0.0745098 0.0745098
vn -0 -1 -0
vt 1.04963 2.26122
vt 0.000144884 2.26122
vt 0.471994 1.40869
vt 0.382947 1.41548
vt 0.561294 1.40767
vt 0.650474 1.41241
vt 0.294523 1.428
vt 0.739162 1.4229
f 19/39/11 20/40/11 21/41/11
f 20/40/11 22/42/11 21/41/11
f 19/39/11 23/43/11 24/44/11
f 20/40/11 25/45/11 22/42/11
f 21/41/11 23/43/11 19/39/11
f 24/44/11 26/46/11 19/39/11
